<?xml version="1.0" standalone="no"?>
<!DOCTYPE svg PUBLIC "-//W3C//DTD SVG 20010904//EN"
 "http://www.w3.org/TR/2001/REC-SVG-20010904/DTD/svg10.dtd">
<svg version="1.0" xmlns="http://www.w3.org/2000/svg"
 width="1344.000000pt" height="634.000000pt" viewBox="0 0 1344.000000 634.000000"
 preserveAspectRatio="xMidYMid meet">

<g transform="translate(0.000000,634.000000) scale(0.100000,-0.100000)"
fill="#000000" stroke="none">
<path d="M0 3170 l0 -3170 6720 0 6720 0 0 3170 0 3170 -6720 0 -6720 0 0
-3170z m12857 2860 c87 -53 83 -198 -7 -245 l-30 -16 0 30 c0 16 -3 36 -6 44
-4 11 2 16 17 19 32 4 43 28 35 79 l-6 44 -80 0 -80 0 -6 -44 c-8 -50 3 -75
35 -79 24 -4 28 -20 6 -29 -9 -3 -25 3 -37 13 -21 19 -21 19 -9 -3 6 -12 20
-25 31 -28 11 -4 20 -15 20 -26 0 -19 -2 -19 -30 -4 -46 24 -70 70 -70 134 0
49 3 57 39 92 35 36 43 39 92 39 36 0 65 -7 86 -20z m-372 -15 c22 -22 25 -32
25 -105 0 -73 -3 -83 -25 -105 -22 -22 -32 -25 -105 -25 -73 0 -83 3 -105 25
-22 22 -25 32 -25 105 0 73 3 83 25 105 22 22 32 25 105 25 73 0 83 -3 105
-25z m820 -105 l0 -125 -127 -3 -128 -3 0 124 c0 68 3 127 7 131 4 3 61 5 127
4 l121 -3 0 -125z m-11455 10 c0 -13 7 -20 19 -20 30 0 46 -26 33 -55 -9 -19
-19 -25 -42 -25 l-30 0 0 60 c0 33 4 60 10 60 6 0 10 -9 10 -20z m127 -72 c-2
-18 -4 -4 -4 32 0 36 2 50 4 33 2 -18 2 -48 0 -65z m43 82 c0 -5 -4 -10 -10
-10 -5 0 -10 5 -10 10 0 6 5 10 10 10 6 0 10 -4 10 -10z m90 -48 l0 -59 -32 1
c-31 1 -33 3 -33 36 0 31 3 35 28 38 19 2 27 9 27 23 0 10 2 19 5 19 3 0 5
-26 5 -58z m180 -3 l0 -60 -31 3 c-58 6 -66 68 -10 76 13 2 21 11 21 23 0 10
5 19 10 19 6 0 10 -27 10 -61z m530 51 c0 -5 -4 -10 -10 -10 -5 0 -10 5 -10
10 0 6 5 10 10 10 6 0 10 -4 10 -10z m-2186 -33 c24 -58 28 -77 17 -77 -6 0
-11 7 -11 15 0 21 -47 19 -59 -2 -5 -10 -12 -16 -14 -13 -7 7 34 110 44 110 5
0 15 -15 23 -33z m780 21 c-6 -9 -44 -6 -44 3 0 4 11 6 24 5 13 0 22 -4 20 -8z
m266 -38 c24 0 29 5 33 28 2 15 4 0 4 -33 0 -33 -2 -48 -4 -32 -4 22 -9 27
-33 27 -24 0 -29 -5 -33 -27 -2 -16 -4 -1 -4 32 0 33 2 48 4 33 4 -23 9 -28
33 -28z m949 32 c12 -23 -4 -52 -29 -52 -13 0 -20 -7 -20 -20 0 -11 -4 -20
-10 -20 -5 0 -10 25 -10 55 0 54 0 55 30 55 18 0 33 -7 39 -18z m-1453 -7 c9
-8 11 -15 5 -15 -15 0 -14 -57 2 -63 7 -3 5 -6 -5 -6 -16 -1 -25 17 -29 59 -4
42 3 49 27 25z m1780 0 c9 -8 11 -15 5 -15 -15 0 -14 -57 2 -64 6 -3 3 -5 -8
-3 -14 2 -22 12 -25 37 -6 34 -3 60 7 60 2 0 11 -7 19 -15z m-2211 -45 c0 -31
-3 -35 -27 -38 -18 -2 -28 -10 -31 -25 -2 -12 -5 5 -6 39 l-1 61 33 -1 c30 -1
32 -3 32 -36z m63 33 c-13 -3 -18 -15 -18 -39 0 -19 -4 -34 -10 -34 -5 0 -10
18 -10 40 0 37 2 40 28 39 16 -1 20 -3 10 -6z m80 -15 c3 -14 -3 -18 -23 -18
-17 0 -25 -5 -22 -12 2 -7 13 -13 25 -12 12 0 19 -3 16 -8 -15 -23 -64 1 -64
32 0 39 61 54 68 18z m90 -20 c2 -22 -1 -38 -7 -38 -6 0 -11 16 -11 36 0 45
-24 42 -28 -4 -5 -46 -22 -39 -22 9 0 39 1 40 33 37 29 -3 32 -6 35 -40z m72
33 c0 -5 -9 -7 -20 -4 -26 7 -26 -14 1 -22 26 -9 21 -39 -9 -43 -12 -2 -22 1
-22 7 0 6 7 8 15 5 20 -8 19 13 -2 24 -21 12 -10 42 17 42 11 0 20 -4 20 -9z
m78 -13 c3 -14 -3 -18 -23 -18 -17 0 -25 -5 -22 -12 2 -7 13 -13 25 -12 12 0
19 -3 16 -8 -15 -23 -64 1 -64 32 0 39 61 54 68 18z m136 6 c3 -9 6 -27 6 -40
0 -22 -4 -25 -32 -22 -42 4 -51 34 -14 44 14 3 26 11 26 16 0 6 -9 8 -20 5
-11 -3 -20 -1 -20 4 0 16 48 10 54 -7z m86 8 c0 -5 -10 -8 -22 -8 -17 1 -24
-5 -26 -22 -5 -32 24 -39 52 -13 12 11 28 21 34 21 7 0 12 5 12 11 0 7 -9 9
-21 6 -15 -4 -19 -3 -12 4 22 22 48 5 51 -34 3 -35 2 -37 -27 -37 -17 0 -31 5
-31 10 0 6 -8 5 -20 -2 -12 -8 -15 -15 -8 -19 13 -8 2 -29 -15 -28 -9 0 -9 2
0 6 8 3 4 13 -12 31 -27 29 -31 52 -13 70 14 14 58 16 58 4z m164 -14 c16 -26
-4 -53 -40 -53 -25 0 -30 4 -32 29 -6 46 47 63 72 24z m294 -20 c3 -36 2 -38
-26 -38 -17 0 -32 6 -35 14 -6 16 11 36 30 36 7 0 13 5 13 11 0 6 -9 9 -20 6
-11 -3 -17 -1 -14 5 3 5 16 8 27 6 17 -2 23 -11 25 -40z m129 -20 c-2 -13 -4
-3 -4 22 0 25 2 35 4 23 2 -13 2 -33 0 -45z m83 22 c0 -22 -4 -40 -10 -40 -5
0 -10 18 -10 40 0 22 5 40 10 40 6 0 10 -18 10 -40z m174 24 c3 -9 6 -27 6
-40 0 -22 -4 -25 -32 -22 -42 4 -51 34 -14 44 14 3 26 11 26 16 0 6 -9 8 -20
5 -11 -3 -20 -1 -20 4 0 16 48 10 54 -7z m174 4 c20 -20 14 -28 -19 -28 -20 0
-29 -4 -26 -12 2 -7 14 -13 26 -12 11 0 21 -3 21 -8 0 -5 -12 -8 -27 -6 -29 3
-41 32 -29 64 7 17 38 18 54 2z m72 2 c0 -5 -7 -7 -15 -4 -23 9 -18 -12 7 -28
12 -8 18 -19 14 -26 -8 -14 -56 -16 -56 -3 0 5 9 7 20 4 26 -7 25 4 -2 26 -12
10 -18 23 -14 29 9 14 46 16 46 2z m248 -1 c-11 -6 -18 -22 -18 -39 0 -17 -4
-30 -10 -30 -5 0 -10 18 -10 40 0 37 2 40 28 40 23 -1 24 -2 10 -11z m90 -26
c3 -28 -1 -33 -23 -39 -29 -7 -55 10 -55 35 0 25 22 42 50 39 20 -2 26 -9 28
-35z m42 -12 c0 -50 -17 -78 -42 -68 -8 4 -7 6 5 6 14 1 17 11 17 56 0 30 5
55 10 55 6 0 10 -22 10 -49z m78 37 c20 -20 14 -28 -19 -28 -20 0 -29 -4 -26
-12 2 -7 14 -13 26 -12 11 0 21 -3 21 -8 0 -5 -12 -8 -27 -6 -29 3 -41 32 -29
64 7 17 38 18 54 2z m150 -25 c3 -28 -1 -33 -23 -39 -29 -7 -55 10 -55 35 0
25 22 42 50 39 20 -2 26 -9 28 -35z m72 27 c0 -5 -6 -7 -14 -4 -8 3 -17 1 -20
-5 -4 -5 3 -13 14 -16 27 -9 22 -39 -8 -43 -12 -2 -22 1 -22 6 0 6 9 8 20 5
11 -3 20 -1 20 5 0 6 -9 14 -20 17 -20 6 -26 25 -13 38 10 11 43 8 43 -3z
m-2482 -87 c-16 -2 -40 -2 -55 0 -16 2 -3 4 27 4 30 0 43 -2 28 -4z m515 0
c-84 -2 -222 -2 -305 0 -84 1 -16 3 152 3 168 0 236 -2 153 -3z m330 0 c-23
-2 -64 -2 -90 0 -26 2 -7 3 42 3 50 0 71 -1 48 -3z m765 0 c-114 -2 -303 -2
-420 0 -117 1 -24 2 207 2 231 0 327 -1 213 -2z m480 0 c-32 -2 -86 -2 -120 0
-35 2 -9 3 57 3 66 0 94 -1 63 -3z m330 0 c-43 -2 -113 -2 -155 0 -43 1 -8 3
77 3 85 0 120 -2 78 -3z m-508 -628 c0 -8 -7 -15 -15 -15 -8 0 -15 7 -15 15 0
8 7 15 15 15 8 0 15 -7 15 -15z m200 -44 l0 -60 -42 2 c-37 2 -43 5 -46 25 -4
28 14 52 39 52 12 0 19 7 19 20 0 11 7 20 15 20 12 0 15 -13 15 -59z m1130 50
c0 -5 -6 -12 -12 -14 -10 -4 -9 -8 2 -17 11 -9 12 -13 3 -17 -7 -2 -13 -18
-13 -34 0 -19 -5 -29 -15 -29 -10 0 -15 10 -15 30 0 20 -5 30 -15 30 -8 0 -15
-9 -15 -20 0 -11 5 -20 10 -20 6 0 10 -5 10 -11 0 -6 -10 -9 -22 -7 -17 2 -24
11 -26 31 -2 19 -9 27 -23 27 -14 0 -19 -7 -19 -30 0 -20 -5 -30 -15 -30 -11
0 -15 11 -15 40 0 39 1 40 35 40 19 0 35 5 35 10 0 6 7 10 15 10 8 0 15 -4 15
-10 0 -17 25 -11 38 10 12 20 42 28 42 11z m70 -6 c-7 -8 -16 -15 -21 -15 -5
0 -6 7 -3 15 4 8 13 15 21 15 13 0 13 -3 3 -15z m70 -45 c0 -47 -3 -60 -15
-60 -12 0 -15 13 -15 60 0 47 3 60 15 60 12 0 15 -13 15 -60z m40 45 c0 -8 -7
-15 -15 -15 -8 0 -15 7 -15 15 0 8 7 15 15 15 8 0 15 -7 15 -15z m-1943 -12
c4 -9 1 -19 -5 -21 -8 -2 -8 -8 0 -21 18 -30 3 -51 -37 -51 l-35 0 0 55 0 55
35 0 c24 0 38 -5 42 -17z m1471 -15 c3 -22 -2 -29 -22 -34 -17 -4 -26 -13 -26
-25 0 -10 -7 -19 -15 -19 -12 0 -15 13 -15 56 l0 55 38 -3 c32 -3 37 -7 40
-30z m-1390 -10 c20 -20 13 -38 -15 -39 -24 -2 -25 -2 -5 -6 12 -2 22 -9 22
-14 0 -13 -44 -11 -58 3 -24 24 -7 68 28 68 9 0 21 -5 28 -12z m150 -30 c2
-29 0 -38 -12 -38 -11 0 -16 10 -16 31 0 17 -4 28 -10 24 -5 -3 -10 -17 -10
-31 0 -15 -6 -24 -15 -24 -10 0 -15 10 -15 30 0 17 -4 30 -10 30 -5 0 -10 -13
-10 -30 0 -20 -5 -30 -15 -30 -11 0 -15 11 -15 39 l0 39 63 -1 62 -2 3 -37z
m112 22 c0 -11 5 -20 10 -20 6 0 10 9 10 20 0 11 7 20 15 20 18 0 18 -4 3 -47
-15 -43 -42 -43 -57 -2 -14 42 -14 49 4 49 8 0 15 -9 15 -20z m90 -20 c0 -29
-4 -40 -15 -40 -11 0 -15 11 -15 40 0 29 4 40 15 40 11 0 15 -11 15 -40z m92
27 c4 -7 8 -24 8 -39 0 -36 -27 -38 -32 -3 -2 14 -7 26 -13 26 -5 0 -11 -12
-13 -26 -5 -42 -32 -31 -32 14 0 38 1 39 38 39 20 0 40 -5 44 -11z m202 -9
c14 -23 -3 -52 -33 -56 -42 -6 -67 38 -39 66 17 17 58 11 72 -10z m130 0 c13
-18 16 -19 16 -5 0 18 40 33 65 23 20 -7 20 -62 -1 -70 -28 -11 -53 -6 -63 12
-10 16 -10 16 -11 0 0 -27 -75 -20 -75 7 0 12 9 22 25 26 24 7 24 7 3 8 -31 1
-29 21 1 21 14 0 32 -10 40 -22z m284 -20 c2 -29 0 -38 -12 -38 -11 0 -16 10
-16 31 0 17 -4 28 -10 24 -5 -3 -10 -17 -10 -31 0 -15 -6 -24 -15 -24 -10 0
-15 10 -15 30 0 17 -4 30 -10 30 -5 0 -10 -13 -10 -30 0 -20 -5 -30 -15 -30
-11 0 -15 11 -15 39 l0 39 63 -1 62 -2 3 -37z m90 15 c3 -19 -2 -23 -25 -24
l-28 -2 28 -4 c36 -6 35 -23 -2 -23 -40 0 -57 23 -42 56 15 33 64 31 69 -3z
m42 -4 c0 -38 24 -35 28 4 5 42 22 32 22 -13 0 -39 -1 -40 -34 -40 -36 0 -46
12 -46 56 0 15 6 24 15 24 10 0 15 -10 15 -31z m288 -3 c4 -31 -10 -46 -45
-46 -37 0 -50 51 -19 73 6 4 22 6 36 5 19 -2 26 -10 28 -32z m290 0 c4 -31
-10 -46 -45 -46 -37 0 -50 51 -19 73 6 4 22 6 36 5 19 -2 26 -10 28 -32z m92
-6 c0 -29 -4 -40 -15 -40 -11 0 -15 11 -15 40 0 29 4 40 15 40 11 0 15 -11 15
-40z m84 34 c9 -4 16 -18 16 -34 0 -42 -60 -57 -80 -20 -21 40 17 72 64 54z
m-1724 -34 c0 -5 -11 -10 -25 -10 -14 0 -25 5 -25 10 0 6 11 10 25 10 14 0 25
-4 25 -10z m50 -700 l0 -170 -40 0 -40 0 0 170 0 170 40 0 40 0 0 -170z m190
135 c-23 -24 -43 -35 -63 -35 l-29 0 29 34 c21 27 36 35 62 35 l35 1 -34 -35z
m2040 -135 l0 -170 -35 0 c-26 0 -35 4 -35 17 0 15 -1 15 -18 0 -24 -22 -84
-22 -111 1 -47 37 -45 148 4 190 28 23 74 29 106 12 18 -10 19 -7 19 55 l0 65
35 0 35 0 0 -170z m1860 0 l0 -170 -40 0 -40 0 0 170 0 170 40 0 40 0 0 -170z
m-4282 130 c53 -33 74 -75 70 -145 -6 -101 -62 -155 -160 -155 -52 0 -100 27
-129 72 -27 44 -23 144 7 185 45 61 148 82 212 43z m568 -26 c-3 -26 -6 -75
-6 -110 0 -64 0 -64 -29 -64 l-28 0 -6 83 c-12 143 -13 137 34 137 l42 0 -7
-46z m384 16 c0 -30 -1 -30 -55 -30 l-55 0 0 -40 0 -40 50 0 c49 0 50 -1 50
-30 0 -29 -1 -30 -50 -30 l-50 0 0 -60 0 -60 -40 0 -40 0 0 160 0 160 95 0 95
0 0 -30z m2164 24 c10 -4 16 -18 16 -41 0 -29 -3 -34 -17 -28 -74 30 -144 8
-163 -50 -23 -71 20 -139 84 -133 25 2 32 8 34 31 3 24 0 27 -27 27 -28 0 -31
3 -31 30 l0 30 70 0 70 0 0 -74 c0 -91 -7 -98 -103 -103 -58 -4 -79 -1 -107
15 -48 27 -74 75 -74 137 0 100 69 165 176 165 31 0 63 -3 72 -6z m1982 -10
c-3 -9 -6 -58 -6 -110 l0 -94 -29 0 c-26 0 -29 3 -35 46 -3 26 -6 75 -6 110
l0 64 41 0 c33 0 40 -3 35 -16z m-4691 -99 c23 -22 25 -32 25 -115 l0 -90 -35
0 c-19 0 -35 5 -35 10 0 7 -6 7 -19 0 -56 -30 -111 0 -111 61 0 45 22 63 88
74 23 4 42 11 42 16 0 17 -32 23 -72 12 -37 -10 -38 -10 -38 18 0 31 11 36 83
38 38 1 53 -4 72 -24z m756 -4 c21 -22 29 -39 29 -65 l0 -36 -71 0 c-61 0 -70
-2 -67 -17 5 -26 52 -40 88 -26 29 11 30 10 30 -17 0 -33 -14 -40 -79 -40 -34
0 -56 6 -74 20 -25 20 -50 79 -42 103 2 7 6 25 9 40 8 35 59 67 109 67 29 0
46 -7 68 -29z m139 12 c0 -15 1 -15 18 0 10 10 28 17 40 17 18 0 22 -6 22 -33
0 -29 -3 -33 -27 -32 -36 0 -53 -34 -53 -107 l0 -58 -35 0 -35 0 0 115 0 115
35 0 c26 0 35 -4 35 -17z m190 7 c0 -7 6 -7 19 0 31 16 79 12 101 -10 17 -17
20 -33 20 -115 l0 -95 -35 0 -34 0 -3 83 -3 82 -30 0 -30 0 -3 -82 -3 -83 -39
0 -40 0 0 115 0 115 40 0 c22 0 40 -5 40 -10z m355 -15 c23 -22 25 -32 25
-115 l0 -90 -29 0 c-16 0 -31 5 -33 11 -3 9 -9 9 -25 0 -56 -29 -113 -1 -113
56 0 44 27 69 84 77 25 4 46 12 46 17 0 17 -32 23 -72 12 -37 -10 -38 -10 -38
18 0 31 11 36 83 38 38 1 53 -4 72 -24z m155 9 c0 -14 2 -14 22 0 32 23 81 20
104 -5 15 -17 20 -40 22 -115 l4 -94 -41 0 -40 0 -3 83 c-3 78 -4 82 -27 85
-33 5 -41 -12 -41 -95 l0 -73 -35 0 -35 0 0 115 0 115 35 0 c25 0 35 -4 35
-16z m677 -19 c33 -33 35 -39 31 -86 -8 -77 -39 -104 -122 -104 -74 0 -100 17
-116 74 -23 87 29 151 124 151 42 0 53 -5 83 -35z m714 7 c60 -53 43 -165 -29
-193 -38 -15 -118 -6 -142 16 -32 29 -45 85 -30 129 25 77 139 104 201 48z
m149 12 c0 -14 2 -14 22 0 31 22 84 20 108 -4 17 -17 20 -33 20 -115 l0 -95
-35 0 -35 0 0 69 c0 86 -6 101 -36 101 -31 0 -44 -32 -44 -111 l0 -59 -35 0
-35 0 0 115 0 115 35 0 c25 0 35 -4 35 -16z m378 -20 l3 -32 -44 5 c-40 5 -47
2 -61 -20 -36 -53 4 -97 74 -83 28 5 30 3 30 -24 0 -26 -5 -31 -30 -36 -35 -8
-37 -15 -10 -32 42 -26 14 -72 -44 -72 -32 0 -35 25 -3 34 21 6 21 7 5 20 -10
7 -18 20 -18 29 0 9 -9 18 -20 22 -33 10 -70 63 -70 100 0 82 50 127 135 123
48 -3 50 -4 53 -34z m207 11 c23 -22 25 -32 25 -115 l0 -90 -35 0 c-19 0 -35
5 -35 10 0 7 -6 7 -19 0 -56 -30 -111 0 -111 61 0 45 22 63 88 74 23 4 42 11
42 16 0 17 -32 23 -72 12 -37 -10 -38 -10 -38 18 0 31 11 36 83 38 38 1 53 -4
72 -24z m280 -60 l22 -79 21 78 c12 43 23 80 26 83 2 2 20 3 39 1 l34 -3 -40
-112 -41 -113 -42 0 -42 0 -23 68 c-12 37 -30 89 -40 115 l-19 48 42 -3 42 -3
21 -80z m336 56 c21 -22 29 -39 29 -65 l0 -36 -71 0 c-61 0 -70 -2 -67 -17 5
-26 52 -40 88 -26 29 11 30 10 30 -17 0 -33 -14 -40 -79 -40 -34 0 -56 6 -74
20 -25 20 -50 79 -42 103 2 7 6 25 9 40 8 35 59 67 109 67 29 0 46 -7 68 -29z
m217 -2 c3 -24 1 -26 -39 -25 -59 1 -58 -16 1 -41 47 -20 50 -24 50 -56 0 -48
-37 -77 -96 -77 -60 0 -74 8 -74 41 0 26 2 28 19 19 11 -5 33 -10 50 -10 41 0
41 25 -1 39 -72 25 -91 82 -41 121 21 16 38 20 77 18 46 -3 51 -5 54 -29z
m1969 -61 c-3 -8 -6 -5 -6 6 -1 11 2 17 5 13 3 -3 4 -12 1 -19z m-6366 -84
c19 -23 -1 -49 -37 -49 -30 0 -42 20 -30 51 7 19 50 18 67 -2z m4530 0 c19
-23 -1 -49 -37 -49 -30 0 -42 20 -30 51 7 19 50 18 67 -2z m1239 -149 c0 -8
-4 -15 -10 -15 -5 0 -10 7 -10 15 0 8 5 15 10 15 6 0 10 -7 10 -15z m1038 -23
c2 -7 -3 -12 -12 -12 -9 0 -16 7 -16 16 0 17 22 14 28 -4z m572 8 c0 -5 -4
-10 -10 -10 -5 0 -10 5 -10 10 0 6 5 10 10 10 6 0 10 -4 10 -10z m-740 -20 c0
-5 -5 -10 -11 -10 -5 0 -7 5 -4 10 3 6 8 10 11 10 2 0 4 -4 4 -10z m440 0 c0
-5 -4 -10 -10 -10 -5 0 -10 5 -10 10 0 6 5 10 10 10 6 0 10 -4 10 -10z m-1969
-283 c-13 -13 -26 -3 -16 12 3 6 11 8 17 5 6 -4 6 -10 -1 -17z m-4821 -201 l0
-95 -55 0 c-45 0 -58 4 -70 22 -32 46 -6 107 46 107 26 0 29 3 29 30 0 25 4
30 25 30 25 0 25 0 25 -94z m890 -1 c0 -95 0 -95 -25 -95 -25 0 -25 0 -25 95
0 95 0 95 25 95 25 0 25 0 25 -95z m420 1 l0 -94 -52 0 c-64 -1 -78 10 -78 59
0 47 23 72 62 67 26 -4 28 -2 28 29 0 26 4 33 20 33 19 0 20 -7 20 -94z m670
-1 c0 -88 -1 -95 -20 -95 -19 0 -20 7 -20 95 0 88 1 95 20 95 19 0 20 -7 20
-95z m70 0 c0 -88 -1 -95 -20 -95 -19 0 -20 7 -20 95 0 88 1 95 20 95 19 0 20
-7 20 -95z m630 43 l0 -53 18 23 c12 16 26 23 41 20 l23 -3 -22 -27 -21 -28
20 -29 c26 -37 26 -41 -2 -41 -14 0 -29 11 -39 28 l-17 27 -1 -27 c0 -21 -5
-28 -20 -28 -19 0 -20 7 -20 95 0 88 1 95 20 95 17 0 20 -7 20 -52z m-3660 23
c0 -15 -7 -19 -31 -17 -45 2 -47 -19 -4 -39 43 -21 56 -57 29 -86 -26 -29
-108 -24 -112 8 -3 20 -1 21 27 10 24 -9 33 -8 43 2 11 11 9 15 -6 25 -70 43
-79 63 -46 96 28 28 100 28 100 1z m2750 4 c0 -10 -10 -15 -30 -15 -25 0 -30
-4 -30 -25 0 -20 5 -25 25 -25 16 0 25 -6 25 -15 0 -9 -9 -15 -25 -15 -22 0
-25 -4 -25 -35 0 -31 -3 -35 -25 -35 -25 0 -25 1 -25 90 l0 90 55 0 c42 0 55
-3 55 -15z m490 -4 c0 -15 -7 -19 -31 -17 -45 2 -47 -20 -5 -38 74 -31 53
-106 -31 -106 -39 0 -43 2 -43 25 0 23 2 24 21 15 22 -12 49 -7 49 9 0 5 -16
18 -35 30 -28 16 -35 27 -35 50 0 36 21 50 73 51 30 0 37 -4 37 -19z m80 -11
c0 -11 7 -20 15 -20 8 0 15 -7 15 -15 0 -8 -7 -15 -15 -15 -10 0 -15 -11 -15
-35 0 -24 5 -35 15 -35 8 0 15 -7 15 -15 0 -10 -10 -15 -30 -15 -34 0 -50 23
-50 69 0 17 -4 31 -10 31 -5 0 -10 7 -10 15 0 8 5 15 10 15 6 0 10 6 10 14 0
14 14 24 38 25 6 1 12 -8 12 -19z m-3176 -42 c22 -31 20 -64 -4 -88 -41 -41
-120 -12 -120 45 0 59 91 90 124 43z m76 -15 c0 -21 4 -44 9 -52 15 -24 31 -1
31 45 0 40 2 44 25 44 24 0 25 -2 25 -64 l0 -65 -55 0 c-64 0 -75 12 -75 83 0
39 3 46 20 46 16 0 20 -7 20 -37z m220 0 c0 -21 4 -44 9 -52 15 -24 31 -1 31
45 0 40 2 44 25 44 24 0 25 -2 25 -64 l0 -65 -55 0 c-64 0 -75 12 -75 83 0 39
3 46 20 46 16 0 20 -7 20 -37z m308 -30 c3 -58 1 -63 -18 -63 -17 0 -20 6 -20
44 0 46 -16 69 -31 45 -5 -8 -9 -31 -9 -51 0 -31 -4 -38 -19 -38 -17 0 -20 8
-23 48 -2 26 -7 47 -13 47 -5 0 -11 -21 -13 -47 -3 -43 -5 -48 -28 -48 -23 0
-24 3 -24 64 l0 65 98 -2 97 -2 3 -62z m356 51 c9 -8 16 -24 16 -35 0 -16 -7
-19 -40 -19 -22 0 -40 -4 -40 -9 0 -14 34 -23 55 -15 13 5 16 2 13 -12 -4 -26
-69 -32 -92 -9 -21 21 -21 73 1 97 20 22 66 24 87 2z m116 -3 c0 -14 -5 -18
-20 -14 -27 7 -25 -10 2 -22 52 -23 28 -75 -33 -75 -32 0 -39 3 -39 20 0 16 5
19 30 14 17 -4 30 -4 30 -1 0 4 -13 13 -30 22 -51 27 -34 75 27 75 26 0 33 -4
33 -19z m134 -3 c26 -37 20 -48 -25 -48 -28 0 -39 -4 -36 -12 2 -7 18 -12 36
-11 25 1 31 -3 29 -15 -2 -12 -16 -18 -45 -20 -33 -2 -44 1 -57 20 -9 12 -16
33 -16 45 0 56 83 85 114 41z m143 10 c8 -6 13 -33 13 -64 0 -47 -3 -54 -19
-54 -17 0 -20 8 -23 48 -2 34 -7 47 -18 47 -11 0 -16 -13 -18 -47 -3 -40 -6
-48 -23 -48 -17 0 -19 7 -19 64 l0 64 47 0 c27 0 54 -4 60 -10z m84 -30 l13
-43 9 43 c8 35 14 42 34 42 16 0 23 -5 20 -12 -2 -7 -13 -37 -23 -65 -16 -45
-22 -53 -44 -53 -23 0 -28 7 -47 65 l-21 65 24 0 c19 0 25 -8 35 -42z m201 25
c22 -20 23 -70 1 -95 -37 -41 -123 -9 -123 47 0 55 80 87 122 48z m152 -18 c8
-41 21 -38 31 5 5 23 12 30 31 30 l24 0 -24 -62 c-19 -53 -27 -64 -48 -66 -23
-3 -28 3 -43 50 -10 29 -20 59 -23 66 -2 7 5 12 21 12 20 0 26 -6 31 -35z
m194 23 c7 -7 12 -22 12 -35 0 -20 -5 -23 -41 -23 -37 0 -40 -2 -28 -16 7 -9
22 -14 36 -11 17 3 23 0 23 -14 0 -15 -8 -19 -39 -19 -44 0 -71 26 -71 67 0
48 75 84 108 51z m306 -10 c22 -31 20 -64 -4 -88 -41 -41 -120 -12 -120 45 0
59 91 90 124 43z m126 9 c0 -7 -10 -17 -22 -22 -18 -8 -24 -20 -26 -52 -3 -35
-7 -43 -23 -43 -17 0 -19 7 -19 64 l0 64 45 0 c28 0 45 -4 45 -11z m252 -34
c2 -35 7 -48 18 -48 11 0 16 13 18 48 3 39 6 47 23 47 17 0 19 -7 19 -64 l0
-64 -47 0 c-27 0 -54 4 -60 10 -8 6 -13 33 -13 64 0 47 3 54 19 54 17 0 20 -8
23 -47z m646 35 c7 -7 12 -35 12 -64 l0 -52 -50 0 c-39 -1 -52 3 -60 19 -15
27 4 59 35 59 14 0 25 5 25 11 0 7 -10 9 -25 5 -24 -6 -35 10 -18 27 11 12 68
8 81 -5z m142 -8 c0 -17 -5 -19 -24 -14 -18 4 -27 0 -36 -16 -16 -29 4 -54 38
-45 19 5 23 2 20 -12 -2 -13 -14 -19 -40 -21 -28 -2 -40 2 -52 20 -36 51 -4
108 59 108 28 0 35 -4 35 -20z m5210 4 c0 -8 -4 -12 -10 -9 -5 3 -10 10 -10
16 0 5 5 9 10 9 6 0 10 -7 10 -16z m-2725 -144 c3 -5 1 -10 -4 -10 -6 0 -11 5
-11 10 0 6 2 10 4 10 3 0 8 -4 11 -10z m1765 -84 c0 -3 -4 -8 -10 -11 -5 -3
-10 -1 -10 4 0 6 5 11 10 11 6 0 10 -2 10 -4z m-7495 -46 c0 -8 -10 -16 -22
-18 -18 -3 -23 2 -23 18 0 16 5 21 23 18 12 -2 22 -10 22 -18z m725 -74 l0
-94 -52 0 c-64 -1 -78 10 -78 59 0 47 23 72 62 67 26 -4 28 -2 28 29 0 26 4
33 20 33 19 0 20 -7 20 -94z m990 74 c0 -13 -7 -20 -20 -20 -13 0 -20 7 -20
20 0 13 7 20 20 20 13 0 20 -7 20 -20z m640 -75 c0 -95 0 -95 -25 -95 -25 0
-25 0 -25 95 0 95 0 95 25 95 25 0 25 0 25 -95z m1460 0 c0 -88 -1 -95 -20
-95 -19 0 -20 7 -20 95 0 88 1 95 20 95 19 0 20 -7 20 -95z m115 75 c-10 -11
-24 -20 -32 -20 -11 0 -11 4 -1 20 7 11 21 20 32 20 18 0 19 -1 1 -20z m265 0
c0 -13 -7 -20 -20 -20 -13 0 -20 7 -20 20 0 13 7 20 20 20 13 0 20 -7 20 -20z
m508 3 c5 -17 -26 -29 -40 -15 -6 6 -7 15 -3 22 9 14 37 9 43 -7z m722 -77 l0
-94 -52 0 c-64 -1 -78 10 -78 59 0 47 23 72 62 67 26 -4 28 -2 28 29 0 26 4
33 20 33 19 0 20 -7 20 -94z m-2670 68 c0 -9 -14 -13 -44 -12 -33 0 -43 4 -39
14 7 18 83 16 83 -2z m420 -14 c0 -11 5 -20 10 -20 6 0 10 -7 10 -15 0 -8 -4
-15 -10 -15 -5 0 -10 -16 -10 -35 0 -19 5 -35 10 -35 6 0 10 -7 10 -15 0 -18
-41 -20 -58 -3 -7 7 -12 29 -12 50 0 21 -4 38 -10 38 -5 0 -10 7 -10 15 0 8 5
15 10 15 6 0 10 6 10 14 0 14 14 24 38 25 6 1 12 -8 12 -19z m-3546 -42 c9
-12 16 -41 16 -64 l0 -42 -57 1 c-52 2 -58 4 -61 25 -4 28 14 52 39 52 10 0
21 5 25 12 5 8 -2 9 -24 5 -31 -6 -44 8 -25 26 16 16 72 6 87 -15z m162 -4
c29 -44 2 -104 -47 -104 -26 0 -29 -4 -29 -30 0 -25 -4 -30 -25 -30 -25 0 -25
0 -25 94 l0 95 55 0 c48 0 58 -4 71 -25z m122 14 c7 -7 12 -36 12 -65 l0 -52
-52 2 c-52 2 -53 3 -56 35 -3 29 0 33 28 38 17 4 33 11 37 17 4 7 -5 8 -25 4
-31 -6 -44 8 -25 26 11 12 68 8 81 -5z m82 -53 c0 -58 -2 -65 -20 -65 -18 0
-20 7 -20 65 0 58 2 65 20 65 18 0 20 -7 20 -65z m77 43 l10 -23 12 23 c6 12
21 22 31 22 24 0 25 -4 4 -36 -15 -21 -15 -28 -3 -52 7 -15 15 -30 17 -34 2
-5 -8 -8 -21 -8 -18 0 -28 7 -33 23 l-7 22 -10 -22 c-6 -15 -19 -23 -34 -23
-28 0 -29 7 -4 39 18 24 18 25 -1 58 l-20 33 24 0 c16 0 29 -8 35 -22z m193
12 c35 -19 33 -88 -4 -112 -20 -13 -69 -8 -88 9 -22 20 -23 70 -1 95 18 20 63
24 93 8z m157 -2 c8 -6 13 -33 13 -64 0 -47 -3 -54 -19 -54 -17 0 -20 8 -23
48 -2 34 -7 47 -18 47 -11 0 -16 -13 -18 -47 -3 -40 -6 -48 -23 -48 -17 0 -19
7 -19 64 l0 64 47 0 c27 0 54 -4 60 -10z m137 -4 c10 -10 16 -33 16 -64 l0
-49 -51 2 c-37 1 -55 7 -63 20 -14 21 2 50 30 55 10 2 24 9 29 14 7 7 0 9 -22
5 -32 -6 -45 8 -26 26 12 13 72 7 87 -9z m310 -6 c22 -31 20 -64 -4 -88 -41
-41 -120 -12 -120 45 0 59 91 90 124 43z m223 10 c7 -6 13 -27 13 -48 0 -45
-28 -75 -65 -68 -23 5 -25 2 -25 -28 0 -27 -4 -34 -20 -34 -19 0 -20 7 -20 94
l0 94 52 0 c29 1 58 -4 65 -10z m143 2 c35 -19 33 -88 -4 -112 -20 -13 -69 -8
-88 9 -22 20 -23 70 -1 95 18 20 63 24 93 8z m130 -6 c0 -8 -6 -14 -14 -14
-17 0 -26 -22 -26 -66 0 -27 -4 -34 -20 -34 -18 0 -20 7 -20 64 l0 65 40 -1
c27 0 40 -5 40 -14z m190 -4 c0 -17 -5 -19 -24 -14 -18 4 -27 0 -36 -16 -16
-29 4 -54 38 -45 19 5 23 2 20 -12 -2 -13 -14 -19 -40 -21 -28 -2 -40 2 -52
20 -36 51 -4 108 59 108 28 0 35 -4 35 -20z m100 4 c0 -8 -6 -14 -14 -14 -17
0 -26 -22 -26 -66 0 -27 -4 -34 -20 -34 -18 0 -20 7 -20 64 l0 65 40 -1 c27 0
40 -5 40 -14z m60 -49 c0 -58 -2 -65 -20 -65 -18 0 -20 7 -20 65 0 58 2 65 20
65 18 0 20 -7 20 -65z m124 43 c9 -12 16 -41 16 -64 l0 -42 -57 1 c-52 2 -58
4 -61 25 -4 28 14 52 39 52 10 0 21 5 25 12 5 8 -2 9 -24 5 -31 -6 -44 8 -25
26 16 16 72 6 87 -15z m126 8 c0 -7 -9 -16 -20 -19 -16 -4 -20 -14 -20 -51 0
-42 -2 -46 -25 -46 -24 0 -25 2 -25 65 l0 65 45 0 c32 0 45 -4 45 -14z m160
-5 c0 -14 -5 -18 -20 -14 -27 7 -25 -10 2 -22 52 -23 28 -75 -33 -75 -32 0
-39 3 -39 20 0 16 5 19 30 14 17 -4 30 -4 30 -1 0 4 -13 13 -30 22 -51 27 -34
75 27 75 26 0 33 -4 33 -19z m142 2 c22 -20 23 -70 1 -95 -37 -41 -123 -9
-123 47 0 55 80 87 122 48z m158 -33 c0 -27 4 -50 8 -50 18 0 32 26 32 62 0
31 4 38 20 38 18 0 20 -7 20 -64 l0 -63 -55 -1 c-65 0 -75 11 -75 82 0 42 2
46 25 46 23 0 25 -3 25 -50z m200 31 c0 -14 -5 -18 -18 -14 -10 2 -25 -3 -32
-12 -18 -22 -1 -50 29 -49 14 0 21 -5 21 -18 0 -10 -7 -18 -17 -18 -14 0 -15
-2 -5 -9 21 -13 10 -46 -16 -49 -12 -2 -22 1 -22 7 0 6 5 11 10 11 19 0 10 20
-20 47 -54 48 -32 123 37 123 26 0 33 -4 33 -19z m130 9 c35 -19 33 -88 -4
-112 -20 -13 -69 -8 -88 9 -22 20 -23 70 -1 95 18 20 63 24 93 8z m148 -2 c7
-7 12 -22 12 -35 0 -20 -5 -23 -41 -23 -37 0 -40 -2 -28 -16 7 -9 22 -14 36
-11 17 3 23 0 23 -14 0 -15 -8 -19 -39 -19 -44 0 -71 26 -71 67 0 48 75 84
108 51z m122 -8 c0 -17 -5 -19 -27 -15 -27 6 -27 6 -8 -9 52 -40 54 -45 29
-70 -8 -9 -31 -16 -50 -16 -27 0 -34 4 -34 20 0 17 5 19 25 14 31 -8 33 8 3
21 -49 22 -29 75 28 75 27 0 34 -4 34 -20z m294 -2 c26 -37 20 -48 -25 -48
-28 0 -39 -4 -36 -12 2 -7 18 -12 36 -11 25 1 31 -3 29 -15 -2 -12 -16 -18
-45 -20 -33 -2 -44 1 -57 20 -9 12 -16 33 -16 45 0 56 83 85 114 41z m126 3
c0 -14 -5 -18 -18 -14 -10 2 -25 -3 -32 -12 -18 -22 -1 -50 29 -49 14 0 21 -5
21 -18 0 -24 -56 -25 -82 -1 -22 20 -23 70 -1 95 23 25 83 25 83 -1z m137 7
c8 -6 13 -33 13 -64 0 -47 -3 -54 -19 -54 -17 0 -20 8 -23 48 -2 34 -7 47 -18
47 -11 0 -16 -13 -18 -47 -3 -40 -6 -48 -23 -48 -17 0 -19 7 -19 64 l0 64 47
0 c27 0 54 -4 60 -10z m143 2 c35 -19 33 -88 -4 -112 -20 -13 -69 -8 -88 9
-22 20 -23 70 -1 95 18 20 63 24 93 8z m232 -7 c22 -20 23 -70 1 -95 -24 -27
-87 -24 -107 4 -22 31 -20 64 4 88 24 24 77 26 102 3z m168 -57 c0 -89 -19
-116 -80 -116 -33 0 -40 3 -40 20 0 16 5 19 29 14 22 -5 32 -2 39 13 10 17 8
19 -19 15 -40 -6 -59 13 -59 59 0 51 19 68 80 67 l50 0 0 -72z m70 9 c0 -58
-2 -65 -20 -65 -18 0 -20 7 -20 65 0 58 2 65 20 65 18 0 20 -7 20 -65z m130
45 c0 -17 -5 -19 -24 -14 -18 4 -27 0 -36 -16 -16 -29 4 -54 38 -45 19 5 23 2
20 -12 -2 -13 -14 -19 -40 -21 -28 -2 -40 2 -52 20 -36 51 -4 108 59 108 28 0
35 -4 35 -20z m114 -2 c9 -12 16 -41 16 -64 l0 -42 -57 1 c-52 2 -58 4 -61 25
-4 28 14 52 39 52 10 0 21 5 25 12 5 8 -2 9 -24 5 -31 -6 -44 8 -25 26 16 16
72 6 87 -15z m126 2 c0 -17 -5 -19 -27 -15 -27 6 -27 6 -9 -9 11 -9 23 -16 28
-16 12 0 9 -45 -4 -58 -7 -7 -27 -12 -45 -12 -26 0 -33 4 -33 19 0 14 6 17 25
13 14 -2 25 0 25 6 0 5 -11 13 -25 16 -19 5 -25 13 -25 35 0 32 10 39 58 40
26 1 32 -3 32 -19z m140 -45 c0 -63 -1 -65 -25 -65 -24 0 -25 2 -25 65 0 63 1
65 25 65 24 0 25 -2 25 -65z m140 45 c6 -10 10 -39 10 -64 0 -41 -2 -46 -23
-46 -20 0 -22 4 -19 38 1 20 -2 43 -7 51 -15 24 -31 2 -31 -45 0 -40 -2 -44
-25 -44 -24 0 -25 2 -25 64 l0 65 55 0 c43 0 57 -4 65 -19z m140 10 c35 -19
33 -88 -4 -112 -20 -13 -69 -8 -88 9 -22 20 -23 70 -1 95 18 20 63 24 93 8z
m91 -32 l13 -43 9 43 c8 35 14 42 34 42 16 0 23 -5 20 -12 -2 -7 -13 -37 -23
-65 -16 -45 -22 -53 -44 -53 -23 0 -28 7 -47 65 l-21 65 24 0 c19 0 25 -8 35
-42z m183 20 c9 -12 16 -41 16 -64 l0 -42 -57 1 c-52 2 -58 4 -61 25 -4 28 14
52 39 52 10 0 21 5 25 12 5 8 -2 9 -24 5 -31 -6 -44 8 -25 26 16 16 72 6 87
-15z m310 0 c22 -31 20 -64 -4 -88 -41 -41 -120 -12 -120 45 0 59 91 90 124
43z m126 9 c0 -7 -10 -17 -22 -22 -18 -8 -24 -20 -26 -52 -3 -35 -7 -43 -23
-43 -17 0 -19 7 -19 64 l0 64 45 0 c28 0 45 -4 45 -11z m104 -3 c10 -10 16
-33 16 -64 l0 -49 -51 2 c-37 1 -55 7 -63 20 -14 21 2 50 30 55 10 2 24 9 29
14 7 7 0 9 -22 5 -32 -6 -45 8 -26 26 12 13 72 7 87 -9z m126 -4 c0 -17 -5
-19 -27 -15 -27 6 -27 6 -8 -9 52 -40 54 -45 29 -70 -8 -9 -31 -16 -50 -16
-27 0 -34 4 -34 20 0 17 5 19 25 14 31 -8 33 8 3 21 -49 22 -29 75 28 75 27 0
34 -4 34 -20z m68 -87 c5 -17 -26 -29 -40 -15 -6 6 -7 15 -3 22 9 14 37 9 43
-7z m-78 -113 c0 -5 -4 -10 -10 -10 -5 0 -10 5 -10 10 0 6 5 10 10 10 6 0 10
-4 10 -10z m-4820 -144 l0 -94 -55 -1 c-44 0 -57 3 -65 19 -28 53 4 117 55
108 23 -5 25 -2 25 28 0 27 4 34 20 34 19 0 20 -7 20 -94z m940 74 c0 -13 -7
-20 -20 -20 -13 0 -20 7 -20 20 0 13 7 20 20 20 13 0 20 -7 20 -20z m118 8
c20 -20 14 -25 -28 -25 -22 0 -40 3 -40 6 0 13 24 31 40 31 9 0 21 -5 28 -12z
m360 -5 c5 -17 -26 -29 -40 -15 -6 6 -7 15 -3 22 9 14 37 9 43 -7z m667 -3
c-10 -11 -24 -20 -32 -20 -11 0 -11 4 -3 20 6 11 20 20 32 20 20 0 21 -1 3
-20z m615 -74 l0 -94 -47 0 c-56 0 -83 19 -83 57 0 43 28 74 61 69 27 -4 29
-2 29 29 0 26 4 33 20 33 19 0 20 -7 20 -94z m360 0 l0 -94 -55 -1 c-44 0 -57
3 -65 19 -28 53 4 117 55 108 23 -5 25 -2 25 28 0 27 4 34 20 34 19 0 20 -7
20 -94z m890 -1 c0 -88 -1 -95 -20 -95 -19 0 -20 7 -20 95 0 88 1 95 20 95 19
0 20 -7 20 -95z m208 78 c5 -17 -26 -29 -40 -15 -6 6 -7 15 -3 22 9 14 37 9
43 -7z m1242 -16 c0 -31 2 -33 29 -29 53 7 78 -68 39 -115 -6 -8 -33 -13 -64
-13 l-54 0 0 95 c0 95 0 95 25 95 22 0 25 -4 25 -33z m-6830 3 c0 -16 -5 -19
-28 -14 -37 8 -62 -17 -62 -61 0 -40 27 -60 66 -51 19 5 24 3 24 -14 0 -17 -7
-20 -44 -20 -58 0 -86 23 -93 77 -5 37 -2 46 25 73 24 24 39 30 71 30 34 0 41
-3 41 -20z m574 4 c25 -25 19 -54 -19 -90 -19 -18 -35 -35 -35 -38 0 -3 16 -6
35 -6 24 0 35 -5 35 -15 0 -12 -13 -15 -60 -15 -54 0 -60 2 -60 21 0 11 18 38
40 60 50 50 43 88 -11 59 -16 -9 -19 -7 -19 8 0 10 3 22 7 25 12 13 72 7 87
-9z m5616 -14 c0 -11 5 -20 10 -20 6 0 10 -7 10 -15 0 -8 -4 -15 -10 -15 -5 0
-10 -16 -10 -35 0 -19 5 -35 10 -35 6 0 10 -7 10 -15 0 -18 -41 -20 -58 -3 -7
7 -12 29 -12 50 0 21 -4 38 -10 38 -5 0 -10 7 -10 15 0 8 5 15 10 15 6 0 10 6
10 14 0 14 14 24 38 25 6 1 12 -8 12 -19z m-6060 -30 c35 -19 33 -88 -4 -112
-20 -13 -69 -8 -88 9 -22 20 -23 70 -1 95 18 20 63 24 93 8z m157 -1 c7 -7 13
-6 18 1 11 17 54 11 65 -9 5 -11 10 -40 10 -65 0 -39 -3 -46 -20 -46 -16 0
-20 7 -20 38 0 20 -4 43 -9 51 -15 24 -31 1 -31 -45 0 -37 -3 -44 -19 -44 -17
0 -20 8 -23 48 -2 34 -7 47 -18 47 -11 0 -16 -13 -18 -47 -3 -40 -6 -48 -23
-48 -17 0 -19 7 -19 64 l0 64 47 0 c27 0 53 -4 60 -9z m497 -11 c9 -12 16 -41
16 -64 l0 -42 -57 1 c-52 2 -58 4 -61 25 -4 28 14 52 39 52 10 0 21 5 25 12 5
8 -2 9 -24 5 -31 -6 -44 8 -25 26 16 16 72 6 87 -15z m156 2 c6 -10 10 -39 10
-64 0 -39 -3 -46 -20 -46 -16 0 -20 7 -20 38 0 20 -4 43 -9 51 -15 24 -31 1
-31 -45 0 -40 -2 -44 -25 -44 -24 0 -25 2 -25 64 l0 65 55 0 c43 0 57 -4 65
-19z m140 10 c35 -19 33 -88 -4 -112 -20 -13 -69 -8 -88 9 -22 20 -23 70 -1
95 18 20 63 24 93 8z m130 -9 c0 -14 -6 -17 -27 -13 -31 5 -26 -5 9 -22 51
-25 28 -76 -33 -76 -32 0 -39 3 -39 20 0 16 5 19 30 14 17 -4 30 -4 30 -1 0 4
-13 13 -30 22 -51 27 -34 75 27 75 26 0 33 -4 33 -19z m354 -3 c26 -37 20 -48
-25 -48 -28 0 -39 -4 -36 -12 2 -7 18 -12 36 -11 25 1 31 -3 29 -15 -2 -12
-16 -18 -45 -20 -33 -2 -44 1 -57 20 -9 12 -16 33 -16 45 0 56 83 85 114 41z
m200 6 c9 -8 16 -24 16 -35 0 -16 -7 -19 -40 -19 -22 0 -40 -4 -40 -9 0 -14
34 -23 55 -15 13 5 16 2 13 -12 -4 -26 -69 -32 -92 -9 -21 21 -21 73 1 97 20
22 66 24 87 2z m83 -6 l10 -23 12 23 c6 12 21 22 31 22 24 0 25 -4 4 -36 -15
-21 -15 -28 -3 -52 7 -15 15 -30 17 -34 2 -5 -8 -8 -21 -8 -18 0 -28 7 -33 23
l-7 22 -10 -22 c-6 -15 -19 -23 -34 -23 -28 0 -29 7 -4 39 18 24 18 25 -1 58
l-20 33 24 0 c16 0 29 -8 35 -22z m213 2 c28 -53 -4 -117 -55 -108 -23 5 -25
2 -25 -28 0 -27 -4 -34 -20 -34 -19 0 -20 7 -20 94 l0 94 55 1 c44 0 57 -3 65
-19z m132 3 c10 -9 18 -24 18 -35 0 -14 -8 -18 -41 -18 -28 0 -39 -4 -36 -12
2 -7 18 -12 36 -11 45 2 39 -31 -6 -35 -50 -5 -73 13 -73 55 0 64 58 96 102
56z m118 1 c0 -8 -6 -14 -14 -14 -17 0 -26 -22 -26 -66 0 -27 -4 -34 -20 -34
-18 0 -20 7 -20 64 l0 65 40 -1 c27 0 40 -5 40 -14z m60 -49 c0 -58 -2 -65
-20 -65 -18 0 -20 7 -20 65 0 58 2 65 20 65 18 0 20 -7 20 -65z m134 43 c26
-37 20 -48 -25 -48 -28 0 -39 -4 -36 -12 2 -7 18 -12 36 -11 25 1 31 -3 29
-15 -2 -12 -16 -18 -45 -20 -33 -2 -44 1 -57 20 -9 12 -16 33 -16 45 0 56 83
85 114 41z m143 10 c8 -6 13 -33 13 -64 0 -47 -3 -54 -19 -54 -17 0 -20 8 -23
48 -2 34 -7 47 -18 47 -11 0 -16 -13 -18 -47 -3 -40 -6 -48 -23 -48 -17 0 -19
7 -19 64 l0 64 47 0 c27 0 54 -4 60 -10z m133 -7 c0 -14 -5 -18 -18 -14 -10 2
-25 -3 -32 -12 -18 -22 -1 -50 29 -49 14 0 21 -5 21 -18 0 -24 -56 -25 -82 -1
-22 20 -23 70 -1 95 23 25 83 25 83 -1z m70 -46 c0 -58 -2 -65 -20 -65 -18 0
-20 7 -20 65 0 58 2 65 20 65 18 0 20 -7 20 -65z m124 43 c9 -12 16 -41 16
-64 l0 -42 -57 1 c-52 2 -58 4 -61 25 -4 28 14 52 39 52 10 0 21 5 25 12 5 8
-2 9 -24 5 -31 -6 -44 8 -25 26 16 16 72 6 87 -15z m227 -8 c4 -14 7 -42 8
-62 1 -34 -2 -38 -24 -38 -23 0 -25 4 -25 44 0 46 -16 69 -31 45 -5 -8 -9 -31
-9 -51 0 -31 -4 -38 -20 -38 -18 0 -20 7 -20 64 l0 64 57 -1 c52 -2 58 -4 64
-27z m127 18 c7 -7 12 -35 12 -64 l0 -52 -50 0 c-39 -1 -52 3 -60 19 -15 27 4
59 35 59 14 0 25 5 25 11 0 7 -10 9 -25 5 -24 -6 -35 10 -18 27 11 12 68 8 81
-5z m200 0 c7 -7 12 -36 12 -65 l0 -52 -52 2 c-52 2 -53 3 -56 35 -3 29 0 33
28 38 17 4 33 11 37 17 4 7 -5 8 -25 4 -31 -6 -44 8 -25 26 11 12 68 8 81 -5z
m132 -1 c0 -7 -10 -17 -22 -22 -18 -8 -24 -20 -26 -52 -3 -35 -7 -43 -23 -43
-17 0 -19 7 -19 64 l0 64 45 0 c28 0 45 -4 45 -11z m108 1 c7 -7 12 -22 12
-35 0 -20 -5 -23 -41 -23 -37 0 -40 -2 -28 -16 7 -9 22 -14 36 -11 17 3 23 0
23 -14 0 -15 -8 -19 -39 -19 -44 0 -71 26 -71 67 0 48 75 84 108 51z m130 0
c7 -7 12 -35 12 -64 l0 -52 -50 0 c-39 -1 -52 3 -60 19 -15 27 4 59 35 59 14
0 25 5 25 11 0 7 -10 9 -25 5 -24 -6 -35 10 -18 27 11 12 68 8 81 -5z m364 -5
c10 -9 18 -24 18 -35 0 -14 -8 -18 -41 -18 -28 0 -39 -4 -36 -12 2 -7 18 -12
36 -11 45 2 39 -31 -6 -35 -50 -5 -73 13 -73 55 0 64 58 96 102 56z m362 -5
c26 -37 20 -48 -25 -48 -28 0 -39 -4 -36 -12 2 -7 18 -12 36 -11 25 1 31 -3
29 -15 -2 -12 -16 -18 -45 -20 -33 -2 -44 1 -57 20 -9 12 -16 33 -16 45 0 56
83 85 114 41z m116 3 c0 -14 -6 -17 -27 -13 -31 5 -26 -5 9 -22 51 -25 28 -76
-33 -76 -32 0 -39 3 -39 20 0 16 5 19 30 14 17 -4 30 -4 30 -1 0 4 -13 13 -30
22 -51 27 -34 75 27 75 26 0 33 -4 33 -19z m128 7 c7 -7 12 -22 12 -35 0 -20
-5 -23 -41 -23 -37 0 -40 -2 -28 -16 7 -9 22 -14 36 -11 17 3 23 0 23 -14 0
-15 -8 -19 -39 -19 -44 0 -71 26 -71 67 0 48 75 84 108 51z m152 -8 c6 -10 10
-39 10 -64 0 -39 -3 -46 -20 -46 -16 0 -20 7 -20 38 0 20 -4 43 -9 51 -15 24
-31 1 -31 -45 0 -40 -2 -44 -25 -44 -24 0 -25 2 -25 64 l0 65 55 0 c43 0 57
-4 65 -19z m76 -25 l11 -40 12 43 c9 31 17 42 31 42 24 0 24 -9 1 -75 -14 -41
-22 -51 -43 -53 -23 -3 -28 2 -43 50 -10 29 -20 59 -23 66 -3 10 2 13 19 10
18 -2 26 -13 35 -43z m194 35 c35 -19 33 -88 -4 -112 -20 -13 -69 -8 -88 9
-22 20 -23 70 -1 95 18 20 63 24 93 8z m162 -32 l13 -42 11 39 c8 30 17 41 34
43 16 3 21 0 18 -10 -3 -7 -13 -37 -23 -66 -15 -48 -20 -53 -43 -50 -21 2 -29
12 -43 53 -23 66 -23 75 1 75 14 0 23 -11 32 -42z m138 -23 c0 -58 -2 -65 -20
-65 -18 0 -20 7 -20 65 0 58 2 65 20 65 18 0 20 -7 20 -65z m221 35 c4 -14 7
-42 8 -62 1 -34 -2 -38 -23 -38 -22 0 -25 5 -28 45 -2 25 -7 45 -13 45 -5 0
-11 -20 -13 -45 -3 -40 -6 -45 -28 -45 -22 0 -24 4 -24 51 0 66 -24 62 -28 -4
-3 -39 -6 -47 -23 -47 -17 0 -19 7 -19 64 l0 64 92 -1 c89 -2 92 -3 99 -27z
m133 14 c9 -8 16 -24 16 -35 0 -16 -7 -19 -40 -19 -22 0 -40 -4 -40 -9 0 -14
34 -23 55 -15 13 5 16 2 13 -12 -4 -26 -69 -32 -92 -9 -21 21 -21 73 1 97 20
22 66 24 87 2z m157 -14 c4 -14 7 -42 8 -62 1 -34 -2 -38 -24 -38 -23 0 -25 4
-25 44 0 46 -16 69 -31 45 -5 -8 -9 -31 -9 -51 0 -31 -4 -38 -20 -38 -18 0
-20 7 -20 64 l0 64 57 -1 c52 -2 58 -4 64 -27z m243 8 c35 -49 7 -108 -50
-108 -41 0 -74 29 -74 65 0 59 91 90 124 43z m143 -20 l7 -43 11 40 c18 62 64
59 65 -5 0 -20 2 -22 10 -10 5 8 10 25 10 38 0 15 6 22 20 22 24 0 24 -7 4
-76 -13 -45 -19 -54 -38 -54 -18 0 -25 8 -32 38 l-10 37 -8 -37 c-7 -31 -13
-38 -31 -38 -20 0 -26 9 -39 54 -20 69 -20 76 4 76 16 0 21 -9 27 -42z m261
30 c7 -7 12 -22 12 -35 0 -20 -5 -23 -41 -23 -37 0 -40 -2 -28 -16 7 -9 22
-14 36 -11 17 3 23 0 23 -14 0 -15 -8 -19 -39 -19 -44 0 -71 26 -71 67 0 48
75 84 108 51z m223 -115 c-8 -30 -41 -45 -41 -20 0 28 12 47 30 47 15 0 17 -5
11 -27z m-1901 -109 c0 -8 -4 -12 -10 -9 -5 3 -10 10 -10 16 0 5 5 9 10 9 6 0
10 -7 10 -16z m400 1 c0 -8 -4 -15 -10 -15 -5 0 -10 7 -10 15 0 8 5 15 10 15
6 0 10 -7 10 -15z m2731 -28 c-1 -12 -15 -9 -19 4 -3 6 1 10 8 8 6 -3 11 -8
11 -12z m-7901 -41 c0 -31 2 -33 27 -28 36 7 53 -19 53 -80 0 -41 -3 -48 -20
-48 -16 0 -20 7 -20 38 0 20 -4 43 -9 51 -15 24 -31 1 -31 -45 0 -40 -2 -44
-25 -44 -25 0 -25 0 -25 95 0 95 0 95 25 95 22 0 25 -4 25 -34z m1470 -61 c0
-88 -1 -95 -20 -95 -19 0 -20 7 -20 95 0 88 1 95 20 95 19 0 20 -7 20 -95z
m1080 1 l0 -94 -52 0 c-64 -1 -78 10 -78 59 0 47 23 72 62 67 26 -4 28 -2 28
29 0 26 4 33 20 33 19 0 20 -7 20 -94z m270 62 c0 -31 2 -33 37 -33 l38 0 3
-62 c3 -58 1 -63 -18 -63 -17 0 -20 6 -20 44 0 46 -16 69 -31 45 -5 -8 -9 -31
-9 -51 0 -31 -4 -38 -20 -38 -19 0 -20 7 -20 95 0 88 1 95 20 95 16 0 20 -7
20 -32z m290 -1 c0 -31 2 -33 29 -29 50 7 79 -58 46 -105 -12 -18 -25 -22 -65
-21 l-50 0 0 94 c0 87 1 94 20 94 16 0 20 -7 20 -33z m158 16 c5 -17 -26 -29
-40 -15 -6 6 -7 15 -3 22 9 14 37 9 43 -7z m72 -78 c0 -95 0 -95 -25 -95 -25
0 -25 0 -25 95 0 95 0 95 25 95 25 0 25 0 25 -95z m68 78 c5 -17 -26 -29 -40
-15 -6 6 -7 15 -3 22 9 14 37 9 43 -7z m152 -77 l0 -94 -55 -1 c-44 0 -57 3
-65 19 -28 53 4 117 55 108 23 -5 25 -2 25 28 0 27 4 34 20 34 19 0 20 -7 20
-94z m290 0 l0 -94 -52 0 c-64 -1 -78 10 -78 59 0 47 23 72 62 67 26 -4 28 -2
28 29 0 26 4 33 20 33 19 0 20 -7 20 -94z m1030 61 c0 -32 2 -33 32 -29 38 6
58 -16 58 -63 0 -44 -25 -63 -82 -63 l-48 0 0 94 c0 87 1 94 20 94 16 0 20 -7
20 -33z m2100 19 c0 -7 -9 -16 -20 -19 -23 -6 -27 -27 -5 -27 8 0 15 -7 15
-15 0 -8 -7 -15 -15 -15 -11 0 -15 -12 -15 -50 0 -43 -3 -50 -20 -50 -17 0
-20 7 -20 50 0 28 -4 50 -10 50 -5 0 -10 7 -10 15 0 8 5 15 10 15 6 0 10 8 10
18 0 10 5 23 12 30 17 17 68 15 68 -2z m1010 -80 l0 -95 -55 0 c-45 0 -58 4
-70 22 -32 46 -6 107 46 107 26 0 29 3 29 30 0 25 4 30 25 30 25 0 25 0 25
-94z m-8370 54 c0 -11 7 -20 15 -20 8 0 15 -7 15 -15 0 -8 -7 -15 -15 -15 -10
0 -15 -11 -15 -35 0 -24 5 -35 15 -35 8 0 15 -7 15 -16 0 -11 -8 -14 -32 -12
-32 3 -33 5 -36 51 -2 26 -7 47 -13 47 -5 0 -9 7 -9 15 0 8 5 15 10 15 6 0 10
6 10 14 0 13 13 23 33 25 4 1 7 -8 7 -19z m6400 0 c0 -11 7 -20 15 -20 8 0 15
-7 15 -15 0 -8 -7 -15 -15 -15 -10 0 -15 -11 -15 -35 0 -24 5 -35 15 -35 8 0
15 -7 15 -15 0 -10 -10 -15 -30 -15 -34 0 -50 23 -50 69 0 17 -4 31 -10 31 -5
0 -10 7 -10 15 0 8 5 15 10 15 6 0 10 6 10 14 0 14 14 24 38 25 6 1 12 -8 12
-19z m380 0 c0 -11 7 -20 15 -20 8 0 15 -7 15 -15 0 -8 -7 -15 -15 -15 -10 0
-15 -10 -15 -30 0 -18 6 -33 15 -36 27 -11 17 -34 -14 -34 -32 0 -41 14 -41
66 0 19 -4 34 -10 34 -5 0 -10 7 -10 15 0 8 5 15 10 15 6 0 10 6 10 14 0 13
13 23 33 25 4 1 7 -8 7 -19z m1040 0 c0 -11 7 -20 15 -20 8 0 15 -7 15 -15 0
-8 -7 -15 -15 -15 -10 0 -15 -10 -15 -30 0 -18 6 -33 15 -36 8 -4 15 -13 15
-21 0 -10 -9 -13 -32 -11 -32 3 -33 5 -36 51 -2 26 -7 47 -13 47 -5 0 -9 7 -9
15 0 8 4 15 9 15 5 0 11 9 14 20 3 11 12 20 21 20 9 0 16 -8 16 -20z m-147
-22 c56 1 67 -11 67 -74 0 -47 -2 -54 -20 -54 -16 0 -20 7 -20 38 0 20 -4 43
-9 51 -15 24 -31 1 -31 -45 0 -37 -3 -44 -20 -44 -16 0 -20 7 -20 33 0 17 -3
50 -7 71 -5 30 -3 37 6 31 7 -4 31 -7 54 -7z m-7529 -14 c9 -8 16 -24 16 -35
0 -16 -7 -19 -40 -19 -22 0 -40 -4 -40 -9 0 -14 34 -23 55 -15 13 5 16 2 13
-12 -4 -26 -69 -32 -92 -9 -21 21 -21 73 1 97 20 22 66 24 87 2z m157 -14 c4
-14 7 -42 8 -62 1 -34 -2 -38 -24 -38 -23 0 -25 4 -25 44 0 46 -16 69 -31 45
-5 -8 -9 -31 -9 -51 0 -31 -4 -38 -20 -38 -18 0 -20 7 -20 64 l0 64 57 -1 c52
-2 58 -4 64 -27z m291 13 c22 -20 23 -70 1 -95 -20 -22 -76 -24 -97 -2 -21 20
-20 73 1 96 20 22 70 23 95 1z m148 -20 c0 -21 4 -44 9 -52 15 -24 31 -1 31
45 0 40 2 44 25 44 24 0 25 -2 25 -64 l0 -65 -55 0 c-64 0 -75 12 -75 83 0 39
3 46 20 46 16 0 20 -7 20 -37z m311 7 c4 -14 7 -42 8 -62 1 -34 -2 -38 -23
-38 -22 0 -25 5 -28 45 -2 25 -7 45 -13 45 -5 0 -11 -20 -13 -45 -3 -40 -6
-45 -28 -45 -22 0 -24 4 -24 51 0 66 -24 62 -28 -4 -3 -39 -6 -47 -23 -47 -17
0 -19 7 -19 64 l0 64 92 -1 c89 -2 92 -3 99 -27z m127 18 c7 -7 12 -36 12 -65
l0 -52 -52 2 c-52 2 -53 3 -56 35 -3 29 0 33 28 38 17 4 33 11 37 17 4 7 -5 8
-25 4 -31 -6 -44 8 -25 26 11 12 68 8 81 -5z m206 -10 c9 -12 16 -41 16 -64
l0 -42 -57 1 c-52 2 -58 4 -61 25 -4 28 14 52 39 52 10 0 21 5 25 12 5 8 -2 9
-24 5 -31 -6 -44 8 -25 26 16 16 72 6 87 -15z m234 -45 c3 -58 1 -63 -18 -63
-17 0 -20 6 -20 44 0 46 -16 69 -31 45 -5 -8 -9 -31 -9 -51 0 -31 -4 -38 -19
-38 -17 0 -20 8 -23 48 -2 26 -7 47 -13 47 -5 0 -11 -21 -13 -47 -3 -43 -5
-48 -28 -48 -23 0 -24 3 -24 64 l0 65 98 -2 97 -2 3 -62z m149 55 c7 -6 13
-27 13 -48 0 -45 -28 -75 -65 -68 -23 5 -25 2 -25 -28 0 -27 -4 -34 -20 -34
-19 0 -20 7 -20 94 l0 94 52 0 c29 1 58 -4 65 -10z m207 -10 c9 -12 16 -41 16
-64 l0 -42 -57 1 c-52 2 -58 4 -61 25 -4 28 14 52 39 52 10 0 21 5 25 12 5 8
-2 9 -24 5 -31 -6 -44 8 -25 26 16 16 72 6 87 -15z m236 -47 c0 -91 -23 -123
-84 -119 -30 2 -42 8 -44 21 -3 15 0 18 17 12 27 -8 61 2 61 19 0 8 -10 11
-29 8 -50 -7 -79 58 -45 106 12 18 25 22 70 22 l54 0 0 -69z m118 57 c7 -7 12
-36 12 -65 l0 -52 -52 2 c-52 2 -53 3 -56 35 -3 29 0 33 28 38 17 4 33 11 37
17 4 7 -5 8 -25 4 -31 -6 -44 8 -25 26 11 12 68 8 81 -5z m149 0 c7 -5 14 -5
18 2 8 14 48 13 63 -2 7 -7 12 -36 12 -65 0 -46 -3 -53 -19 -53 -17 0 -20 8
-23 48 -2 34 -7 47 -18 47 -11 0 -16 -13 -18 -47 -3 -40 -6 -48 -23 -48 -16 0
-19 7 -19 44 0 46 -16 69 -31 45 -5 -8 -9 -31 -9 -51 0 -31 -4 -38 -20 -38
-18 0 -20 7 -20 64 l0 64 48 0 c26 0 52 -5 59 -10z m217 -10 c9 -12 16 -41 16
-64 l0 -42 -57 1 c-52 2 -58 4 -61 25 -4 28 14 52 39 52 10 0 21 5 25 12 5 8
-2 9 -24 5 -31 -6 -44 8 -25 26 16 16 72 6 87 -15z m364 10 c7 -7 12 -22 12
-35 0 -20 -5 -23 -41 -23 -37 0 -40 -2 -28 -16 7 -9 22 -14 36 -11 17 3 23 0
23 -14 0 -15 -8 -19 -39 -19 -44 0 -71 26 -71 67 0 48 75 84 108 51z m350 0
c7 -7 12 -35 12 -64 l0 -52 -50 0 c-39 -1 -52 3 -60 19 -15 27 4 59 35 59 14
0 25 5 25 11 0 7 -10 9 -25 5 -24 -6 -35 10 -18 27 11 12 68 8 81 -5z m242
-53 c0 -63 -1 -65 -25 -65 -24 0 -25 2 -25 65 0 63 1 65 25 65 24 0 25 -2 25
-65z m140 0 c0 -63 -1 -65 -25 -65 -24 0 -25 2 -25 65 0 63 1 65 25 65 24 0
25 -2 25 -65z m274 49 c10 -10 16 -33 16 -64 l0 -49 -51 2 c-37 1 -55 7 -63
20 -14 21 2 50 30 55 10 2 24 9 29 14 7 7 0 9 -22 5 -32 -6 -45 8 -26 26 12
13 72 7 87 -9z m294 4 c7 -7 12 -22 12 -35 0 -20 -5 -23 -41 -23 -37 0 -40 -2
-28 -16 7 -9 22 -14 36 -11 17 3 23 0 23 -14 0 -15 -8 -19 -39 -19 -44 0 -71
26 -71 67 0 48 75 84 108 51z m122 -8 c0 -17 -5 -19 -27 -15 -27 6 -27 6 -8
-9 52 -40 54 -45 29 -70 -8 -9 -31 -16 -50 -16 -27 0 -34 4 -34 20 0 17 5 19
25 14 31 -8 33 8 3 21 -49 22 -29 75 28 75 27 0 34 -4 34 -20z m220 -76 c0
-87 -1 -94 -20 -94 -16 0 -20 7 -20 33 0 32 -2 33 -30 29 -41 -6 -60 13 -60
59 0 51 19 68 80 67 l50 0 0 -94z m72 49 c2 -35 7 -48 18 -48 11 0 16 13 18
48 3 39 6 47 23 47 17 0 19 -7 19 -64 l0 -64 -47 0 c-27 0 -54 4 -60 10 -8 6
-13 33 -13 64 0 47 3 54 19 54 17 0 20 -8 23 -47z m206 35 c7 -7 12 -22 12
-35 0 -20 -5 -23 -41 -23 -37 0 -40 -2 -28 -16 7 -9 22 -14 36 -11 17 3 23 0
23 -14 0 -15 -8 -19 -39 -19 -44 0 -71 26 -71 67 0 48 75 84 108 51z m200 0
c7 -7 12 -35 12 -64 l0 -52 -50 0 c-39 -1 -52 3 -60 19 -15 27 4 59 35 59 14
0 25 5 25 11 0 7 -10 9 -25 5 -24 -6 -35 10 -18 27 11 12 68 8 81 -5z m282 -2
c0 -7 -9 -16 -20 -19 -16 -4 -20 -14 -20 -51 0 -42 -2 -46 -25 -46 -24 0 -25
2 -25 65 l0 65 45 0 c32 0 45 -4 45 -14z m108 2 c7 -7 12 -35 12 -64 l0 -52
-50 0 c-39 -1 -52 3 -60 19 -15 27 4 59 35 59 14 0 25 5 25 11 0 7 -10 9 -25
5 -24 -6 -35 10 -18 27 11 12 68 8 81 -5z m149 0 c8 -6 13 -33 13 -64 0 -47
-3 -54 -19 -54 -17 0 -20 8 -23 48 -2 34 -7 47 -18 47 -11 0 -16 -13 -18 -47
-3 -40 -6 -48 -23 -48 -17 0 -19 7 -19 64 l0 64 47 0 c27 0 54 -4 60 -10z
m171 -65 c-4 -65 -9 -80 -28 -95 -30 -25 -93 -21 -98 5 -3 15 1 17 22 11 16
-4 32 -1 41 6 22 19 18 28 -10 22 -53 -10 -84 56 -50 105 12 18 25 22 71 22
l57 0 -5 -76z m124 60 c10 -9 18 -24 18 -35 0 -14 -8 -18 -41 -18 -28 0 -39
-4 -36 -12 2 -7 18 -12 36 -11 45 2 39 -31 -6 -35 -50 -5 -73 13 -73 55 0 64
58 96 102 56z m145 6 c7 -7 13 -6 18 1 11 17 54 11 65 -9 5 -11 10 -40 10 -65
0 -39 -3 -46 -20 -46 -16 0 -20 7 -20 38 0 20 -4 43 -9 51 -15 24 -31 1 -31
-45 0 -37 -3 -44 -19 -44 -17 0 -20 8 -23 48 -2 34 -7 47 -18 47 -11 0 -16
-13 -18 -47 -3 -40 -6 -48 -23 -48 -17 0 -19 7 -19 64 l0 64 47 0 c27 0 53 -4
60 -9z m381 -1 c7 -7 12 -35 12 -64 l0 -52 -50 0 c-39 -1 -52 3 -60 19 -15 27
4 59 35 59 14 0 25 5 25 11 0 7 -10 9 -25 5 -24 -6 -35 10 -18 27 11 12 68 8
81 -5z m149 0 c8 -6 13 -33 13 -64 0 -47 -3 -54 -19 -54 -17 0 -20 8 -23 48
-2 34 -7 47 -18 47 -11 0 -16 -13 -18 -47 -3 -40 -6 -48 -23 -48 -17 0 -19 7
-19 64 l0 64 47 0 c27 0 54 -4 60 -10z m243 2 c35 -19 33 -88 -4 -112 -20 -13
-69 -8 -88 9 -22 20 -23 70 -1 95 18 20 63 24 93 8z m234 -12 c22 -31 20 -64
-4 -88 -41 -41 -120 -12 -120 45 0 59 91 90 124 43z m286 7 c0 -7 -9 -15 -20
-18 -16 -4 -20 -14 -20 -51 0 -39 -3 -46 -20 -46 -18 0 -20 7 -20 64 l0 65 40
-1 c25 0 40 -5 40 -13z m122 -2 c22 -20 23 -70 1 -95 -20 -22 -76 -24 -97 -2
-21 20 -20 73 1 96 20 22 70 23 95 1z m482 1 c9 -8 16 -24 16 -35 0 -16 -7
-19 -40 -19 -22 0 -40 -4 -40 -9 0 -14 34 -23 55 -15 13 5 16 2 13 -12 -4 -26
-69 -32 -92 -9 -21 21 -21 73 1 97 20 22 66 24 87 2z m157 -14 c4 -14 7 -42 8
-62 1 -34 -2 -38 -24 -38 -23 0 -25 4 -25 44 0 46 -16 69 -31 45 -5 -8 -9 -31
-9 -51 0 -31 -4 -38 -20 -38 -18 0 -20 7 -20 64 l0 65 57 -2 c52 -2 58 -4 64
-27z m-281 -35 c0 -11 -11 -15 -40 -15 -29 0 -40 4 -40 15 0 11 11 15 40 15
29 0 40 -4 40 -15z m1164 -166 c-3 -5 -10 -7 -15 -3 -5 3 -7 10 -3 15 3 5 10
7 15 3 5 -3 7 -10 3 -15z m-7974 -72 c0 -32 2 -33 30 -29 41 6 60 -13 60 -58
0 -50 -23 -68 -82 -68 l-48 0 0 94 c0 87 1 94 20 94 16 0 20 -7 20 -33z m410
-19 l0 -53 18 23 c12 16 26 23 41 20 l23 -3 -22 -27 -21 -28 20 -29 c26 -37
26 -41 -2 -41 -14 0 -29 11 -39 28 l-17 27 -1 -27 c0 -21 -5 -28 -20 -28 -19
0 -20 7 -20 95 0 88 1 95 20 95 17 0 20 -7 20 -52z m600 -42 l0 -95 -55 0
c-45 0 -58 4 -70 22 -32 46 -6 107 46 107 26 0 29 3 29 30 0 25 4 30 25 30 25
0 25 0 25 -94z m-1540 54 c0 -11 7 -20 15 -20 8 0 15 -7 15 -15 0 -8 -7 -15
-15 -15 -10 0 -15 -10 -15 -30 0 -18 6 -33 15 -36 24 -9 18 -34 -8 -34 -33 0
-47 19 -47 62 0 21 -4 38 -10 38 -5 0 -10 7 -10 15 0 8 5 15 10 15 6 0 10 6
10 14 0 13 13 23 33 25 4 1 7 -8 7 -19z m-520 -116 c0 -87 -1 -94 -20 -94 -16
0 -20 7 -20 34 0 30 -2 33 -25 28 -53 -10 -84 56 -50 105 12 18 25 22 65 21
l50 0 0 -94z m70 59 c0 -21 4 -44 9 -52 15 -24 31 -1 31 45 0 40 2 44 25 44
24 0 25 -2 25 -64 l0 -65 -55 0 c-64 0 -75 12 -75 83 0 39 3 46 20 46 16 0 20
-7 20 -37z m208 25 c7 -7 12 -36 12 -65 l0 -52 -52 2 c-52 2 -53 3 -56 35 -3
29 0 33 28 38 17 4 33 11 37 17 4 7 -5 8 -25 4 -31 -6 -44 8 -25 26 11 12 68
8 81 -5z m163 -18 c4 -14 7 -42 8 -62 1 -34 -2 -38 -24 -38 -23 0 -25 4 -25
44 0 46 -16 69 -31 45 -5 -8 -9 -31 -9 -51 0 -31 -4 -38 -20 -38 -18 0 -20 7
-20 64 l0 64 57 -1 c52 -2 58 -4 64 -27z m243 8 c22 -31 20 -64 -4 -88 -41
-41 -120 -12 -120 45 0 59 91 90 124 43z m220 0 c22 -31 20 -64 -4 -88 -41
-41 -120 -12 -120 45 0 59 91 90 124 43z m354 10 c7 -7 12 -35 12 -64 l0 -52
-50 0 c-39 -1 -52 3 -60 19 -15 27 4 59 35 59 14 0 25 5 25 11 0 7 -10 9 -25
5 -24 -6 -35 10 -18 27 11 12 68 8 81 -5z m142 -8 c0 -17 -5 -19 -24 -14 -18
4 -27 0 -36 -16 -16 -29 4 -54 38 -45 19 5 23 2 20 -12 -2 -13 -14 -19 -40
-21 -28 -2 -40 2 -52 20 -36 51 -4 108 59 108 28 0 35 -4 35 -20z m344 4 c9
-8 16 -24 16 -35 0 -16 -7 -19 -40 -19 -22 0 -40 -4 -40 -9 0 -14 34 -23 55
-15 13 5 16 2 13 -12 -4 -26 -69 -32 -92 -9 -21 21 -21 73 1 97 20 22 66 24
87 2z m157 -14 c4 -14 7 -42 8 -62 1 -34 -2 -38 -24 -38 -23 0 -25 4 -25 44 0
46 -16 69 -31 45 -5 -8 -9 -31 -9 -51 0 -31 -4 -38 -20 -38 -18 0 -20 7 -20
64 l0 64 57 -1 c52 -2 58 -4 64 -27z m4009 20 c0 -5 -4 -10 -10 -10 -5 0 -10
5 -10 10 0 6 5 10 10 10 6 0 10 -4 10 -10z m-4290 -55 c0 -11 -11 -15 -40 -15
-29 0 -40 4 -40 15 0 11 11 15 40 15 29 0 40 -4 40 -15z m508 -42 c5 -17 -26
-29 -40 -15 -6 6 -7 15 -3 22 9 14 37 9 43 -7z m3307 -133 c3 -5 1 -10 -4 -10
-6 0 -11 5 -11 10 0 6 2 10 4 10 3 0 8 -4 11 -10z m4745 -64 c0 -11 -19 -15
-25 -6 -3 5 1 10 9 10 9 0 16 -2 16 -4z m-2120 -26 c0 -5 -4 -10 -10 -10 -5 0
-10 5 -10 10 0 6 5 10 10 10 6 0 10 -4 10 -10z m-15 -30 c3 -5 1 -10 -4 -10
-6 0 -11 5 -11 10 0 6 2 10 4 10 3 0 8 -4 11 -10z m-2763 -85 c0 -5 -5 -11
-11 -13 -6 -2 -11 4 -11 13 0 9 5 15 11 13 6 -2 11 -8 11 -13z m2038 -115 c0
-5 -4 -10 -10 -10 -5 0 -10 5 -10 10 0 6 5 10 10 10 6 0 10 -4 10 -10z m1464
-41 c-10 -16 -24 -9 -24 12 0 18 2 19 15 9 8 -7 12 -16 9 -21z m-3237 -21 c-3
-8 -6 -5 -6 6 -1 11 2 17 5 13 3 -3 4 -12 1 -19z m3983 -8 c0 -5 -7 -10 -15
-10 -8 0 -15 5 -15 10 0 6 7 10 15 10 8 0 15 -4 15 -10z m-8223 -83 c27 -27
28 -30 28 -142 0 -112 -1 -115 -28 -142 l-27 -28 -680 0 -680 0 -27 28 c-27
27 -28 30 -28 141 0 100 2 117 20 136 11 12 29 26 40 31 11 4 320 7 687 6
l668 -2 27 -28z m6768 -17 c-5 -8 -11 -8 -17 -2 -6 6 -7 16 -3 22 5 8 11 8 17
2 6 -6 7 -16 3 -22z m-835 10 c0 -5 -4 -10 -10 -10 -5 0 -10 5 -10 10 0 6 5
10 10 10 6 0 10 -4 10 -10z m2178 -52 c-6 -18 -28 -21 -28 -4 0 9 7 16 16 16
9 0 14 -5 12 -12z m578 -65 c-10 -10 -19 5 -10 18 6 11 8 11 12 0 2 -7 1 -15
-2 -18z m-406 -43 c0 -5 -4 -10 -10 -10 -5 0 -10 5 -10 10 0 6 5 10 10 10 6 0
10 -4 10 -10z m70 -120 c0 -5 -5 -10 -11 -10 -5 0 -7 5 -4 10 3 6 8 10 11 10
2 0 4 -4 4 -10z m1400 -50 c0 -5 -4 -10 -10 -10 -5 0 -10 5 -10 10 0 6 5 10
10 10 6 0 10 -4 10 -10z m-2770 -214 c0 -3 -4 -8 -10 -11 -5 -3 -10 -1 -10 4
0 6 5 11 10 11 6 0 10 -2 10 -4z m1090 -26 c0 -5 -4 -10 -10 -10 -5 0 -10 5
-10 10 0 6 5 10 10 10 6 0 10 -4 10 -10z m660 -40 c0 -5 -4 -10 -10 -10 -5 0
-10 5 -10 10 0 6 5 10 10 10 6 0 10 -4 10 -10z m-4375 -40 c3 -5 1 -10 -4 -10
-6 0 -11 5 -11 10 0 6 2 10 4 10 3 0 8 -4 11 -10z m2030 0 c3 -5 1 -10 -4 -10
-6 0 -11 5 -11 10 0 6 2 10 4 10 3 0 8 -4 11 -10z m3096 -13 c-1 -12 -15 -9
-19 4 -3 6 1 10 8 8 6 -3 11 -8 11 -12z m-1491 -7 c0 -5 -2 -10 -4 -10 -3 0
-8 5 -11 10 -3 6 -1 10 4 10 6 0 11 -4 11 -10z m-1260 -180 c0 -5 -4 -10 -10
-10 -5 0 -10 5 -10 10 0 6 5 10 10 10 6 0 10 -4 10 -10z m-1690 -30 c0 -5 -5
-10 -11 -10 -5 0 -7 5 -4 10 3 6 8 10 11 10 2 0 4 -4 4 -10z m3690 -90 c0 -5
-7 -7 -15 -4 -8 4 -15 8 -15 10 0 2 7 4 15 4 8 0 15 -4 15 -10z m-2610 -10 c0
-5 -2 -10 -4 -10 -3 0 -8 5 -11 10 -3 6 -1 10 4 10 6 0 11 -4 11 -10z m-1300
-10 c0 -5 -4 -10 -10 -10 -5 0 -10 5 -10 10 0 6 5 10 10 10 6 0 10 -4 10 -10z
m120 -110 c0 -5 -4 -10 -10 -10 -5 0 -10 5 -10 10 0 6 5 10 10 10 6 0 10 -4
10 -10z m-855 -70 c3 -5 -1 -10 -10 -10 -9 0 -13 5 -10 10 3 6 8 10 10 10 2 0
7 -4 10 -10z m3705 -110 c0 -5 -4 -10 -10 -10 -5 0 -10 5 -10 10 0 6 5 10 10
10 6 0 10 -4 10 -10z"/>
<path d="M12290 6000 c-16 -16 -20 -33 -20 -90 0 -57 4 -74 20 -90 16 -16 33
-20 90 -20 57 0 74 4 90 20 16 16 20 33 20 90 0 57 -4 74 -20 90 -16 16 -33
20 -90 20 -57 0 -74 -4 -90 -20z m170 -20 c0 -5 -4 -10 -10 -10 -5 0 -10 5
-10 10 0 6 5 10 10 10 6 0 10 -4 10 -10z m-55 -10 c52 -20 52 -100 0 -120 -55
-21 -111 33 -87 85 10 21 26 33 59 44 1 1 13 -3 28 -9z"/>
<path d="M12344 5936 c-9 -23 -1 -48 19 -60 25 -16 52 4 52 40 0 25 -4 29 -33
32 -22 2 -34 -2 -38 -12z"/>
<path d="M13090 5980 c0 -15 5 -20 18 -18 9 2 17 10 17 18 0 8 -8 16 -17 18
-13 2 -18 -3 -18 -18z"/>
<path d="M13226 5943 c-3 -3 -22 -6 -41 -5 l-36 1 3 -62 c2 -49 7 -62 20 -65
14 -3 17 6 20 45 2 35 7 49 20 51 14 3 17 -6 20 -45 2 -36 7 -49 21 -51 15 -3
17 5 17 57 0 49 -4 62 -19 70 -10 6 -21 7 -25 4z"/>
<path d="M13090 5874 c0 -57 2 -65 18 -62 14 3 18 16 20 66 3 57 1 62 -18 62
-18 0 -20 -6 -20 -66z"/>
<path d="M1854 5876 c-8 -22 3 -49 19 -43 6 2 12 14 12 27 0 27 -22 39 -31 16z"/>
<path d="M2057 5875 c-9 -22 3 -46 22 -43 10 2 16 13 16 28 0 28 -29 40 -38
15z"/>
<path d="M2234 5876 c-8 -22 3 -49 19 -43 6 2 12 14 12 27 0 27 -22 39 -31 16z"/>
<path d="M601 5881 c-10 -18 -9 -21 9 -21 22 0 25 7 11 29 -7 11 -11 9 -20 -8z"/>
<path d="M2580 5895 c0 -20 4 -26 18 -23 9 2 17 12 17 23 0 11 -8 21 -17 23
-14 3 -18 -3 -18 -23z"/>
<path d="M694 5875 c-8 -21 2 -45 20 -45 7 0 16 7 20 15 8 21 -3 45 -20 45 -8
0 -17 -7 -20 -15z"/>
<path d="M840 5880 c0 -5 9 -10 21 -10 11 0 17 5 14 10 -3 6 -13 10 -21 10 -8
0 -14 -4 -14 -10z"/>
<path d="M1085 5880 c-3 -5 3 -10 15 -10 12 0 18 5 15 10 -3 6 -10 10 -15 10
-5 0 -12 -4 -15 -10z"/>
<path d="M1220 5844 c0 -17 22 -14 28 4 2 7 -3 12 -12 12 -9 0 -16 -7 -16 -16z"/>
<path d="M1377 5853 c-12 -11 -8 -23 8 -23 8 0 15 7 15 15 0 16 -12 20 -23 8z"/>
<path d="M1457 5875 c-9 -22 3 -46 22 -43 10 2 16 13 16 28 0 28 -29 40 -38
15z"/>
<path d="M1767 5853 c-12 -11 -8 -23 8 -23 8 0 15 7 15 15 0 16 -12 20 -23 8z"/>
<path d="M2150 5844 c0 -9 5 -14 12 -12 18 6 21 28 4 28 -9 0 -16 -7 -16 -16z"/>
<path d="M2325 5880 c-3 -5 3 -10 14 -10 12 0 21 5 21 10 0 6 -6 10 -14 10 -8
0 -18 -4 -21 -10z"/>
<path d="M2724 5875 c-8 -21 2 -45 20 -45 7 0 16 7 20 15 8 21 -3 45 -20 45
-8 0 -17 -7 -20 -15z"/>
<path d="M2855 5880 c-3 -5 3 -10 14 -10 12 0 21 5 21 10 0 6 -6 10 -14 10 -8
0 -18 -4 -21 -10z"/>
<path d="M2994 5875 c-8 -21 2 -45 20 -45 7 0 16 7 20 15 8 21 -3 45 -20 45
-8 0 -17 -7 -20 -15z"/>
<path d="M2690 5110 c0 -13 5 -20 13 -17 6 2 12 10 12 17 0 7 -6 15 -12 18 -8
2 -13 -5 -13 -18z"/>
<path d="M2060 5150 c0 -5 7 -10 15 -10 8 0 15 5 15 10 0 6 -7 10 -15 10 -8 0
-15 -4 -15 -10z"/>
<path d="M2060 5105 c0 -8 7 -15 15 -15 8 0 15 7 15 15 0 8 -7 15 -15 15 -8 0
-15 -7 -15 -15z"/>
<path d="M3540 5145 c0 -8 5 -15 10 -15 6 0 10 7 10 15 0 8 -4 15 -10 15 -5 0
-10 -7 -10 -15z"/>
<path d="M2790 5110 c0 -11 7 -20 15 -20 8 0 15 9 15 20 0 11 -7 20 -15 20 -8
0 -15 -9 -15 -20z"/>
<path d="M3014 5119 c-10 -17 13 -36 27 -22 12 12 4 33 -11 33 -5 0 -12 -5
-16 -11z"/>
<path d="M2925 5100 c-3 -5 1 -10 9 -10 9 0 16 5 16 10 0 6 -4 10 -9 10 -6 0
-13 -4 -16 -10z"/>
<path d="M3308 5123 c7 -3 16 -2 19 1 4 3 -2 6 -13 5 -11 0 -14 -3 -6 -6z"/>
<path d="M3624 5119 c-10 -17 13 -36 27 -22 12 12 4 33 -11 33 -5 0 -12 -5
-16 -11z"/>
<path d="M3914 5119 c-10 -17 13 -36 27 -22 12 12 4 33 -11 33 -5 0 -12 -5
-16 -11z"/>
<path d="M4105 5120 c-7 -12 2 -30 16 -30 5 0 9 9 9 20 0 21 -15 27 -25 10z"/>
<path d="M4552 4398 c-13 -13 -16 -56 -6 -82 7 -19 55 -21 72 -4 7 7 12 26 12
43 0 36 -15 55 -45 55 -12 0 -26 -5 -33 -12z"/>
<path d="M2163 4490 c-30 -12 -43 -41 -43 -93 0 -61 25 -91 75 -91 51 0 75 30
75 96 0 39 -5 54 -25 73 -25 26 -45 30 -82 15z"/>
<path d="M2605 4340 c-21 -4 -30 -11 -30 -25 0 -25 37 -32 54 -11 21 25 10 42
-24 36z"/>
<path d="M3342 4408 c-21 -21 -13 -28 28 -28 38 0 40 2 30 20 -12 22 -40 26
-58 8z"/>
<path d="M4048 4342 c-31 -4 -43 -26 -23 -42 18 -15 40 -7 54 19 13 23 6 28
-31 23z"/>
<path d="M4832 4398 c-13 -13 -16 -56 -6 -82 4 -10 18 -16 40 -16 27 0 37 5
46 25 18 40 0 79 -37 83 -17 2 -36 -3 -43 -10z"/>
<path d="M5546 4394 c-9 -22 -7 -67 3 -82 5 -8 21 -12 41 -10 40 4 57 38 41
81 -9 22 -17 27 -45 27 -22 0 -36 -6 -40 -16z"/>
<path d="M6325 4340 c-21 -4 -30 -11 -30 -25 0 -25 37 -32 54 -11 21 25 10 42
-24 36z"/>
<path d="M6922 4408 c-21 -21 -13 -28 28 -28 38 0 40 2 30 20 -12 22 -40 26
-58 8z"/>
<path d="M3044 3616 c-9 -23 0 -51 16 -51 10 0 15 10 15 29 0 32 -21 47 -31
22z"/>
<path d="M4357 3623 c-11 -10 -8 -51 4 -59 18 -10 42 21 34 45 -6 21 -25 28
-38 14z"/>
<path d="M2222 3618 c-16 -16 -15 -33 4 -48 22 -19 54 12 38 37 -14 22 -27 26
-42 11z"/>
<path d="M3195 3620 c-3 -5 3 -10 15 -10 12 0 18 5 15 10 -3 6 -10 10 -15 10
-5 0 -12 -4 -15 -10z"/>
<path d="M3445 3620 c-3 -5 3 -10 15 -10 12 0 18 5 15 10 -3 6 -10 10 -15 10
-5 0 -12 -4 -15 -10z"/>
<path d="M3867 3624 c-11 -11 -8 -52 3 -59 17 -10 41 16 38 39 -3 21 -28 33
-41 20z"/>
<path d="M4215 3620 c-3 -5 3 -10 14 -10 12 0 21 5 21 10 0 6 -6 10 -14 10 -8
0 -18 -4 -21 -10z"/>
<path d="M4512 3618 c-16 -16 -15 -33 4 -48 22 -19 54 12 38 37 -14 22 -27 26
-42 11z"/>
<path d="M5545 3581 c-3 -5 -1 -12 5 -16 12 -7 30 2 30 16 0 12 -27 12 -35 0z"/>
<path d="M3147 3293 c-11 -10 -8 -51 4 -59 18 -10 42 21 34 45 -6 21 -25 28
-38 14z"/>
<path d="M7847 3293 c-11 -10 -8 -51 4 -59 18 -10 42 21 34 45 -6 21 -25 28
-38 14z"/>
<path d="M2070 3245 c0 -8 4 -15 9 -15 5 0 14 7 21 15 10 13 9 15 -9 15 -12 0
-21 -6 -21 -15z"/>
<path d="M2224 3286 c-9 -23 0 -51 16 -51 10 0 15 10 15 29 0 32 -21 47 -31
22z"/>
<path d="M2360 3244 c0 -17 22 -14 28 4 2 7 -3 12 -12 12 -9 0 -16 -7 -16 -16z"/>
<path d="M2704 3286 c-10 -26 0 -51 21 -51 16 0 20 7 20 30 0 33 -30 49 -41
21z"/>
<path d="M3003 3248 c2 -7 10 -13 17 -13 7 0 15 6 18 13 2 7 -5 12 -18 12 -13
0 -20 -5 -17 -12z"/>
<path d="M3302 3288 c-16 -16 -15 -33 4 -48 22 -19 54 12 38 37 -14 22 -27 26
-42 11z"/>
<path d="M3524 3275 c-8 -31 7 -50 31 -41 22 8 16 60 -7 64 -12 2 -19 -5 -24
-23z"/>
<path d="M3674 3286 c-10 -26 0 -51 21 -51 16 0 20 7 20 30 0 33 -30 49 -41
21z"/>
<path d="M4280 3245 c0 -8 4 -15 9 -15 5 0 14 7 21 15 10 13 9 15 -9 15 -12 0
-21 -6 -21 -15z"/>
<path d="M4707 3294 c-11 -11 -8 -52 3 -59 17 -10 41 16 38 39 -3 21 -28 33
-41 20z"/>
<path d="M5194 3286 c-10 -26 0 -51 21 -51 16 0 20 7 20 30 0 33 -30 49 -41
21z"/>
<path d="M5345 3290 c-3 -5 3 -10 14 -10 12 0 21 5 21 10 0 6 -6 10 -14 10 -8
0 -18 -4 -21 -10z"/>
<path d="M5765 3290 c-3 -5 3 -10 15 -10 12 0 18 5 15 10 -3 6 -10 10 -15 10
-5 0 -12 -4 -15 -10z"/>
<path d="M6164 3286 c-10 -26 0 -51 21 -51 16 0 20 7 20 30 0 33 -30 49 -41
21z"/>
<path d="M6397 3294 c-11 -11 -8 -52 3 -59 17 -10 41 16 38 39 -3 21 -28 33
-41 20z"/>
<path d="M6547 3294 c-11 -11 -8 -52 3 -59 17 -10 41 16 38 39 -3 21 -28 33
-41 20z"/>
<path d="M6880 3245 c0 -8 4 -15 9 -15 5 0 14 7 21 15 10 13 9 15 -9 15 -12 0
-21 -6 -21 -15z"/>
<path d="M7424 3286 c-10 -26 0 -51 21 -51 16 0 20 7 20 30 0 33 -30 49 -41
21z"/>
<path d="M7700 3245 c0 -8 4 -15 9 -15 5 0 14 7 21 15 10 13 9 15 -9 15 -12 0
-21 -6 -21 -15z"/>
<path d="M8002 3288 c-16 -16 -15 -33 4 -48 22 -19 54 12 38 37 -14 22 -27 26
-42 11z"/>
<path d="M8243 3248 c2 -7 10 -13 17 -13 7 0 15 6 18 13 2 7 -5 12 -18 12 -13
0 -20 -5 -17 -12z"/>
<path d="M3514 2956 c-10 -26 0 -51 21 -51 16 0 20 7 20 30 0 33 -30 49 -41
21z"/>
<path d="M6220 2954 c-10 -11 -11 -20 -3 -32 17 -27 38 -20 38 12 0 34 -16 44
-35 20z"/>
<path d="M6574 2956 c-10 -26 0 -51 21 -51 16 0 20 7 20 30 0 33 -30 49 -41
21z"/>
<path d="M9004 2956 c-9 -23 0 -51 16 -51 10 0 15 10 15 29 0 32 -21 47 -31
22z"/>
<path d="M2234 2956 c-10 -26 0 -51 21 -51 16 0 20 7 20 30 0 33 -30 49 -41
21z"/>
<path d="M2890 2915 c0 -8 4 -15 9 -15 5 0 14 7 21 15 10 13 9 15 -9 15 -12 0
-21 -6 -21 -15z"/>
<path d="M3184 2956 c-10 -26 0 -51 21 -51 16 0 20 7 20 30 0 33 -30 49 -41
21z"/>
<path d="M3675 2960 c-3 -5 3 -10 15 -10 12 0 18 5 15 10 -3 6 -10 10 -15 10
-5 0 -12 -4 -15 -10z"/>
<path d="M3875 2960 c-3 -5 3 -10 15 -10 12 0 18 5 15 10 -3 6 -10 10 -15 10
-5 0 -12 -4 -15 -10z"/>
<path d="M4157 2964 c-11 -11 -8 -52 3 -59 17 -10 41 16 38 39 -3 21 -28 33
-41 20z"/>
<path d="M4305 2960 c-3 -5 3 -10 15 -10 12 0 18 5 15 10 -3 6 -10 10 -15 10
-5 0 -12 -4 -15 -10z"/>
<path d="M4615 2960 c-3 -5 3 -10 15 -10 12 0 18 5 15 10 -3 6 -10 10 -15 10
-5 0 -12 -4 -15 -10z"/>
<path d="M5080 2915 c0 -8 4 -15 9 -15 5 0 14 7 21 15 10 13 9 15 -9 15 -12 0
-21 -6 -21 -15z"/>
<path d="M5435 2921 c-3 -5 -1 -12 5 -16 12 -7 30 2 30 16 0 12 -27 12 -35 0z"/>
<path d="M5640 2914 c0 -17 22 -14 28 4 2 7 -3 12 -12 12 -9 0 -16 -7 -16 -16z"/>
<path d="M5875 2960 c-3 -5 3 -10 14 -10 12 0 21 5 21 10 0 6 -6 10 -14 10 -8
0 -18 -4 -21 -10z"/>
<path d="M6005 2921 c-3 -5 -1 -12 5 -16 12 -7 30 2 30 16 0 12 -27 12 -35 0z"/>
<path d="M6375 2960 c-3 -5 3 -10 15 -10 12 0 18 5 15 10 -3 6 -10 10 -15 10
-5 0 -12 -4 -15 -10z"/>
<path d="M6735 2960 c-3 -5 3 -10 15 -10 12 0 18 5 15 10 -3 6 -10 10 -15 10
-5 0 -12 -4 -15 -10z"/>
<path d="M6975 2960 c-3 -5 3 -10 14 -10 12 0 21 5 21 10 0 6 -6 10 -14 10 -8
0 -18 -4 -21 -10z"/>
<path d="M7394 2956 c-10 -26 0 -51 21 -51 16 0 20 7 20 30 0 33 -30 49 -41
21z"/>
<path d="M8055 2960 c-3 -5 3 -10 15 -10 12 0 18 5 15 10 -3 6 -10 10 -15 10
-5 0 -12 -4 -15 -10z"/>
<path d="M8442 2958 c-16 -16 -15 -33 4 -48 22 -19 54 12 38 37 -14 22 -27 26
-42 11z"/>
<path d="M8855 2960 c-3 -5 3 -10 14 -10 12 0 21 5 21 10 0 6 -6 10 -14 10 -8
0 -18 -4 -21 -10z"/>
<path d="M4937 2633 c-11 -10 -8 -51 4 -59 18 -10 42 21 34 45 -6 21 -25 28
-38 14z"/>
<path d="M5587 2633 c-11 -11 -8 -51 5 -59 18 -11 39 25 27 47 -10 20 -21 24
-32 12z"/>
<path d="M5944 2626 c-10 -26 0 -51 21 -51 16 0 20 7 20 30 0 33 -30 49 -41
21z"/>
<path d="M6237 2633 c-11 -10 -8 -51 4 -59 18 -10 42 21 34 45 -6 21 -25 28
-38 14z"/>
<path d="M7357 2634 c-11 -11 -8 -52 3 -59 17 -10 41 16 38 39 -3 21 -28 33
-41 20z"/>
<path d="M10374 2626 c-9 -23 0 -51 16 -51 10 0 15 10 15 29 0 32 -21 47 -31
22z"/>
<path d="M2175 2630 c-3 -5 3 -10 15 -10 12 0 18 5 15 10 -3 6 -10 10 -15 10
-5 0 -12 -4 -15 -10z"/>
<path d="M2614 2626 c-10 -26 0 -51 21 -51 16 0 20 7 20 30 0 33 -30 49 -41
21z"/>
<path d="M3210 2584 c0 -9 5 -14 12 -12 18 6 21 28 4 28 -9 0 -16 -7 -16 -16z"/>
<path d="M3410 2585 c0 -8 4 -15 9 -15 5 0 14 7 21 15 10 13 9 15 -9 15 -12 0
-21 -6 -21 -15z"/>
<path d="M3784 2615 c-8 -31 7 -50 31 -41 22 8 16 60 -7 64 -12 2 -19 -5 -24
-23z"/>
<path d="M4000 2585 c0 -8 4 -15 9 -15 5 0 14 7 21 15 10 13 9 15 -9 15 -12 0
-21 -6 -21 -15z"/>
<path d="M4217 2633 c-11 -11 -8 -51 5 -59 18 -11 39 25 27 47 -10 20 -21 24
-32 12z"/>
<path d="M4360 2584 c0 -9 5 -14 12 -12 18 6 21 28 4 28 -9 0 -16 -7 -16 -16z"/>
<path d="M4720 2585 c0 -8 4 -15 9 -15 5 0 14 7 21 15 10 13 9 15 -9 15 -12 0
-21 -6 -21 -15z"/>
<path d="M5085 2630 c-3 -5 3 -10 14 -10 12 0 21 5 21 10 0 6 -6 10 -14 10 -8
0 -18 -4 -21 -10z"/>
<path d="M5435 2591 c-3 -5 -1 -12 5 -16 12 -7 30 2 30 16 0 12 -27 12 -35 0z"/>
<path d="M6093 2588 c2 -7 10 -13 17 -13 7 0 15 6 18 13 2 7 -5 12 -18 12 -13
0 -20 -5 -17 -12z"/>
<path d="M6385 2630 c-3 -5 3 -10 14 -10 12 0 21 5 21 10 0 6 -6 10 -14 10 -8
0 -18 -4 -21 -10z"/>
<path d="M6707 2634 c-11 -11 -8 -52 4 -60 6 -3 18 1 27 10 13 12 14 21 6 33
-12 20 -27 26 -37 17z"/>
<path d="M7005 2630 c-3 -5 3 -10 14 -10 12 0 21 5 21 10 0 6 -6 10 -14 10 -8
0 -18 -4 -21 -10z"/>
<path d="M7205 2591 c-3 -5 -1 -12 5 -16 12 -7 30 2 30 16 0 12 -27 12 -35 0z"/>
<path d="M7595 2591 c-3 -5 -1 -12 5 -16 12 -7 30 2 30 16 0 12 -27 12 -35 0z"/>
<path d="M7890 2624 c-10 -11 -11 -20 -3 -32 17 -27 38 -20 38 12 0 34 -16 44
-35 20z"/>
<path d="M8045 2630 c-3 -5 3 -10 15 -10 12 0 18 5 15 10 -3 6 -10 10 -15 10
-5 0 -12 -4 -15 -10z"/>
<path d="M8565 2591 c-3 -5 -1 -12 5 -16 12 -7 30 2 30 16 0 12 -27 12 -35 0z"/>
<path d="M8954 2626 c-10 -26 0 -51 21 -51 16 0 20 7 20 30 0 33 -30 49 -41
21z"/>
<path d="M9182 2628 c-16 -16 -15 -33 4 -48 22 -19 54 12 38 37 -14 22 -27 26
-42 11z"/>
<path d="M9594 2626 c-10 -26 0 -51 21 -51 16 0 20 7 20 30 0 33 -30 49 -41
21z"/>
<path d="M10085 2630 c-3 -5 3 -10 15 -10 12 0 18 5 15 10 -3 6 -10 10 -15 10
-5 0 -12 -4 -15 -10z"/>
<path d="M3214 2285 c-8 -31 7 -50 31 -41 22 8 16 60 -7 64 -12 2 -19 -5 -24
-23z"/>
<path d="M4134 2296 c-9 -23 0 -51 16 -51 10 0 15 10 15 29 0 32 -21 47 -31
22z"/>
<path d="M2080 2294 c-10 -11 -11 -20 -3 -32 17 -27 38 -20 38 12 0 34 -16 44
-35 20z"/>
<path d="M2380 2254 c0 -9 5 -14 12 -12 18 6 21 28 4 28 -9 0 -16 -7 -16 -16z"/>
<path d="M2772 2298 c-16 -16 -15 -33 4 -48 22 -19 54 12 38 37 -14 22 -27 26
-42 11z"/>
<path d="M2992 2298 c-16 -16 -15 -33 4 -48 22 -19 54 12 38 37 -14 22 -27 26
-42 11z"/>
<path d="M3355 2261 c-3 -5 -1 -12 5 -16 12 -7 30 2 30 16 0 12 -27 12 -35 0z"/>
<path d="M3845 2300 c-3 -5 3 -10 15 -10 12 0 18 5 15 10 -3 6 -10 10 -15 10
-5 0 -12 -4 -15 -10z"/>
<path d="M2142 1528 c-7 -7 -12 -24 -12 -38 0 -14 5 -31 12 -38 14 -14 54 -16
63 -3 3 6 -7 9 -22 8 -26 -2 -28 1 -28 33 0 32 2 35 28 33 15 -1 25 2 22 8 -9
13 -49 11 -63 -3z"/>
<path d="M3160 1530 c0 -5 5 -10 10 -10 6 0 10 5 10 10 0 6 -4 10 -10 10 -5 0
-10 -4 -10 -10z"/>
<path d="M3373 1505 c0 -22 2 -30 4 -17 2 12 2 30 0 40 -3 9 -5 -1 -4 -23z"/>
<path d="M2543 1519 c-12 -12 -2 -71 12 -76 9 -3 12 74 3 83 -2 2 -9 -1 -15
-7z"/>
<path d="M2234 1496 c-11 -29 0 -51 26 -51 21 0 25 5 25 30 0 24 -5 31 -23 33
-13 2 -24 -3 -28 -12z m43 -12 c8 -21 -13 -42 -28 -27 -13 13 -5 43 11 43 6 0
13 -7 17 -16z"/>
<path d="M2310 1476 c0 -20 5 -36 10 -36 6 0 10 14 10 30 0 17 5 30 10 30 6 0
10 -13 10 -30 0 -16 5 -30 11 -30 6 0 9 14 7 33 -2 27 -8 33 -30 35 -26 3 -28
1 -28 -32z"/>
<path d="M2394 1496 c-15 -39 23 -74 50 -46 8 9 6 11 -11 5 -14 -4 -23 -2 -23
4 0 6 9 11 21 11 15 0 19 4 15 16 -3 9 -6 18 -6 20 0 11 -41 2 -46 -10z m36
-6 c0 -5 -4 -10 -10 -10 -5 0 -10 5 -10 10 0 6 5 10 10 10 6 0 10 -4 10 -10z"/>
<path d="M2471 1492 c-12 -23 4 -52 29 -52 11 0 20 4 20 9 0 5 -8 8 -17 7 -12
-1 -18 6 -18 19 0 13 6 20 18 19 9 -1 17 2 17 7 0 16 -39 9 -49 -9z"/>
<path d="M2584 1496 c-15 -39 23 -74 50 -46 8 9 6 11 -11 5 -14 -4 -23 -2 -23
4 0 6 9 11 21 11 14 0 19 5 17 18 -4 22 -46 29 -54 8z m36 -6 c0 -5 -4 -10
-10 -10 -5 0 -10 5 -10 10 0 6 5 10 10 10 6 0 10 -4 10 -10z"/>
<path d="M2704 1499 c-4 -7 4 -20 17 -31 l24 -19 -24 6 c-16 5 -21 4 -17 -4 9
-14 43 -14 52 0 4 7 -4 20 -17 31 -16 14 -18 18 -6 14 9 -3 17 -1 17 4 0 14
-37 12 -46 -1z"/>
<path d="M2780 1496 c-24 -30 17 -73 43 -46 9 10 7 11 -10 5 -14 -4 -23 -2
-23 4 0 6 9 11 21 11 14 0 19 5 17 17 -4 23 -31 28 -48 9z m35 -6 c3 -5 -1
-10 -9 -10 -9 0 -16 5 -16 10 0 6 4 10 9 10 6 0 13 -4 16 -10z"/>
<path d="M2894 1496 c-15 -39 22 -74 49 -47 9 9 5 11 -13 9 -19 -2 -25 2 -25
17 0 15 6 19 23 18 13 -2 21 1 17 7 -9 15 -45 12 -51 -4z"/>
<path d="M2964 1496 c-11 -28 1 -51 25 -51 32 0 49 28 32 49 -17 20 -50 21
-57 2z m46 -21 c0 -16 -6 -25 -15 -25 -9 0 -15 9 -15 25 0 16 6 25 15 25 9 0
15 -9 15 -25z"/>
<path d="M3040 1475 c0 -19 5 -35 10 -35 6 0 10 16 10 35 0 19 -4 35 -10 35
-5 0 -10 -16 -10 -35z"/>
<path d="M3078 1475 c5 -43 22 -47 22 -5 0 17 5 30 10 30 6 0 10 -13 10 -30 0
-16 5 -30 11 -30 6 0 9 14 7 33 -3 28 -7 32 -34 35 -29 3 -30 2 -26 -33z"/>
<path d="M3160 1475 c0 -19 5 -35 10 -35 6 0 10 16 10 35 0 19 -4 35 -10 35
-5 0 -10 -16 -10 -35z"/>
<path d="M3207 1503 c-15 -15 -7 -55 13 -60 11 -3 20 -10 20 -15 0 -5 -10 -6
-22 -3 -18 6 -20 4 -12 -5 7 -6 20 -10 30 -8 15 2 20 14 22 51 3 44 1 47 -21
47 -13 0 -27 -3 -30 -7z m33 -28 c0 -26 -14 -33 -25 -15 -9 14 1 40 15 40 5 0
10 -11 10 -25z"/>
<path d="M3284 1496 c-11 -28 1 -51 25 -51 32 0 49 28 32 49 -17 20 -50 21
-57 2z m46 -21 c0 -16 -6 -25 -15 -25 -9 0 -15 9 -15 25 0 16 6 25 15 25 9 0
15 -9 15 -25z"/>
<path d="M2668 1463 c7 -3 16 -2 19 1 4 3 -2 6 -13 5 -11 0 -14 -3 -6 -6z"/>
</g>
</svg>
